<svg id="katman_1" data-name="katman 1" xmlns="http://www.w3.org/2000/svg" viewBox="0 0 290 77"><defs><style type="text/css">.cls-1{fill:#16b1c5;}.cls-2,.cls-3{fill:#011552;}.cls-3{font-size:29.87994px;font-family:OpenSans-Bold, Open Sans;font-weight:700;}</style></defs><title>setup_logo</title><path class="cls-1" d="M204.6962,44.16913a5.80026,5.80026,0,0,1-2.187,4.78847,9.50049,9.50049,0,0,1-6.08535,1.74963,14.29162,14.29162,0,0,1-6.35393-1.35059V44.93651a26.16627,26.16627,0,0,0,3.84459,1.42733,11.37637,11.37637,0,0,0,2.87769.41439,4.092,4.092,0,0,0,2.40191-.59856,2.04727,2.04727,0,0,0,.83644-1.78033,1.96537,1.96537,0,0,0-.36834-1.1741,4.1218,4.1218,0,0,0-1.082-.98992,27.82963,27.82963,0,0,0-2.90838-1.51942,13.77475,13.77475,0,0,1-3.08488-1.85707,6.968,6.968,0,0,1-1.6422-2.07193,5.91266,5.91266,0,0,1-.61391-2.76258,5.799,5.799,0,0,1,2.01822-4.681,8.38589,8.38589,0,0,1,5.57887-1.70359,13.174,13.174,0,0,1,3.33812.41439,22.95518,22.95518,0,0,1,3.32277,1.16642L203.054,32.91929a22.45334,22.45334,0,0,0-2.96977-1.02829,9.55874,9.55874,0,0,0-2.30982-.29161,3.05866,3.05866,0,0,0-2.07194.62925,2.075,2.075,0,0,0-.72134,1.6422,2.0324,2.0324,0,0,0,.29161,1.09736,3.20341,3.20341,0,0,0,.92853.90551,28.66207,28.66207,0,0,0,3.01582,1.57314,12.00173,12.00173,0,0,1,4.31269,3.01582A5.88716,5.88716,0,0,1,204.6962,44.16913Z"/><path class="cls-1" d="M220.8688,50.40028H207.94607V27.962H220.8688V31.8603h-8.165v4.9266h7.59709v3.89831h-7.59709v5.78607h8.165Z"/><path class="cls-1" d="M231.20588,50.40028h-4.75777V31.92169h-6.093V27.962H237.2989v3.9597h-6.093Z"/><path class="cls-2" d="M261.80744,20.39023V38.90638a12.23659,12.23659,0,0,1-1.19886,5.55876,8.43148,8.43148,0,0,1-3.46431,3.66017,10.76884,10.76884,0,0,1-5.35768,1.27225,9.3068,9.3068,0,0,1-7.2428-2.82831,11.05459,11.05459,0,0,1-2.57962-7.74116V26.65233h5.10964V37.90815a8.3284,8.3284,0,0,0,1.12445,4.85413,4.29,4.29,0,0,0,3.72062,1.54628,4.20486,4.20486,0,0,0,3.6462-1.55606A8.375,8.375,0,0,0,256.6978,37.869V20.39023Z"/><path class="cls-2" d="M283.5,29.31556q0,4.61926-2.70265,7.06589-2.703,2.44664-7.68653,2.44664h-2.437v10.178h-5.68015V20.39023h8.55687q4.87393,0,7.41168,2.24112T283.5,29.31556Zm-12.82614,4.541h1.86895a5.9349,5.9349,0,0,0,3.92113-1.10588,3.99077,3.99077,0,0,0,1.30094-3.21977,4.12052,4.12052,0,0,0-1.09022-3.15127,4.88122,4.88122,0,0,0-3.41725-1.0178h-2.58355Z"/><path class="cls-2" d="M21.47738,24.88852a14.45752,14.45752,0,0,1,5.32562.88463,31.1606,31.1606,0,0,0-6.23074,3.09861A14.392,14.392,0,0,0,17.62,31.45256c-6.3339,7.61093,9.74649,11.16126-1.68782,19.19135A13.48281,13.48281,0,0,1,7.73444,38.64962c-.16885-7.41674,5.98328-13.599,13.74294-13.7611"/><path class="cls-2" d="M27.58593,26.08876a13.49684,13.49684,0,0,1,8.21112,11.994,13.76487,13.76487,0,0,1-13.75588,13.781,14.46017,14.46017,0,0,1-5.32612-.88455,31.17839,31.17839,0,0,0,6.23075-3.09805,14.40113,14.40113,0,0,0,2.95263-2.58074c6.31931-7.63094-9.76107-11.1807,1.6875-19.21165"/><text class="cls-3" transform="translate(38.66016 49.84375)">SINOVATE</text></svg>