<svg id="Layer_1" data-name="Layer 1" xmlns="http://www.w3.org/2000/svg" viewBox="0 0 452 40"><title>Artboard 1100</title><rect width="452" height="40" style="fill:#011552"/><text transform="translate(110.36 26.68)" style="font-size:17.540515899658203px;fill:#0fadb9;font-family:OpenSans-Bold, Open Sans;font-weight:700">Network<tspan x="76.95" y="0" xml:space="preserve" style="font-family:OpenSans, Open Sans;font-weight:400"> Stats</tspan></text><path d="M74,28.43a3.07,3.07,0,1,1,3.07-3.07A3.07,3.07,0,0,1,74,28.43Zm0-4.91a1.85,1.85,0,1,0,1.85,1.84A1.85,1.85,0,0,0,74,23.52Z" style="fill:#0fadb9"/><path d="M76.19,34H71.84A1.89,1.89,0,0,1,70,31.63c.52-2,2-4.07,4-4.07s3.47,2.11,4,4.07a1.82,1.82,0,0,1-.32,1.62A1.86,1.86,0,0,1,76.19,34ZM74,28.78c-1.12,0-2.32,1.36-2.8,3.16a.65.65,0,0,0,.63.82h4.35a.62.62,0,0,0,.51-.26.63.63,0,0,0,.12-.56C76.34,30.14,75.13,28.78,74,28.78Z" style="fill:#0fadb9"/><path d="M95.89,28.43A3.07,3.07,0,1,1,99,25.36,3.07,3.07,0,0,1,95.89,28.43Zm0-4.91a1.85,1.85,0,1,0,1.84,1.84A1.85,1.85,0,0,0,95.89,23.52Z" style="fill:#0fadb9"/><path d="M98.06,34H93.71a1.89,1.89,0,0,1-1.82-2.36c.53-2,2-4.07,4-4.07s3.47,2.11,4,4.07A1.89,1.89,0,0,1,98.06,34Zm-2.17-5.21c-1.12,0-2.33,1.36-2.81,3.16a.65.65,0,0,0,.63.82h4.35a.64.64,0,0,0,.52-.26.65.65,0,0,0,.11-.56C98.21,30.14,97,28.78,95.89,28.78Z" style="fill:#0fadb9"/><path d="M85,26.83a3.24,3.24,0,1,1,3.24-3.24A3.24,3.24,0,0,1,85,26.83Zm0-5.26a2,2,0,1,0,2,2A2,2,0,0,0,85,21.57Z" style="fill:#0fadb9"/><path d="M85,21.42a.61.61,0,0,1-.61-.62V16.92a.61.61,0,1,1,1.22,0V20.8A.61.61,0,0,1,85,21.42Z" style="fill:#0fadb9"/><path d="M77.15,29.93a.61.61,0,0,1-.47-.23.6.6,0,0,1,.09-.86l5.38-4.34a.61.61,0,0,1,.86.1.6.6,0,0,1-.09.86L77.54,29.8A.61.61,0,0,1,77.15,29.93Z" style="fill:#0fadb9"/><path d="M92.83,30a.6.6,0,0,1-.38-.13L87,25.46a.61.61,0,0,1-.1-.86.62.62,0,0,1,.87-.1l5.46,4.39a.61.61,0,0,1,.1.86A.62.62,0,0,1,92.83,30Z" style="fill:#0fadb9"/><path d="M85,12A3.07,3.07,0,1,1,88,8.91,3.08,3.08,0,0,1,85,12Zm0-4.91a1.84,1.84,0,1,0,1.84,1.84A1.84,1.84,0,0,0,85,7.07Z" style="fill:#0fadb9"/><path d="M87.12,17.53H82.77a1.87,1.87,0,0,1-1.49-.73A1.9,1.9,0,0,1,81,15.17c.52-2,2-4.07,4-4.07s3.47,2.11,4,4.07a1.9,1.9,0,0,1-.32,1.63A1.87,1.87,0,0,1,87.12,17.53ZM85,12.33c-1.12,0-2.33,1.36-2.81,3.16a.63.63,0,0,0,.12.56.64.64,0,0,0,.51.26h4.35a.65.65,0,0,0,.52-.26.63.63,0,0,0,.12-.56C87.28,13.69,86.07,12.33,85,12.33Z" style="fill:#0fadb9"/></svg>