<svg id="Layer_1" data-name="Layer 1" xmlns="http://www.w3.org/2000/svg" viewBox="0 0 452 40"><title>4</title><rect width="452" height="40" style="fill:#011552"/><text transform="translate(105.67 25.4)" style="font-size:14.198508262634277px;fill:#0fadb9;font-family:OpenSans-Bold, Open Sans;font-weight:700">Infinity Node<tspan x="93.16" y="0" xml:space="preserve" style="font-family:OpenSans, Open Sans;font-weight:400"> Stats</tspan></text><path d="M83,32.44a7.64,7.64,0,0,1-5-1.9,9.25,9.25,0,0,1-2.82-4.32,8.4,8.4,0,0,1-6.07-7.77,8.4,8.4,0,0,1,6.16-7.79,8.06,8.06,0,0,1,15.43-.11,8.44,8.44,0,0,1,6.35,7.9,8.45,8.45,0,0,1-6.26,7.88A8.39,8.39,0,0,1,83,32.44ZM83,6.37a6.93,6.93,0,0,0-6.44,5.11l-.12.39-.39.11c-3.26.93-5.45,3.53-5.45,6.47S72.77,24,76,24.91l.41.11.11.41c.9,3.29,3.51,5.51,6.5,5.51s5.54-2.18,6.47-5.42l.12-.41L90,25a7,7,0,0,0,5.54-6.55A7,7,0,0,0,90,11.89l-.41-.1-.13-.39A6.91,6.91,0,0,0,83,6.37Z" transform="translate(0)" style="fill:#0fadb9"/><path d="M85.88,12.84a6.45,6.45,0,0,1-5.24,11.79,13.51,13.51,0,0,0,2.9-1.42A6.48,6.48,0,0,0,84.92,22C87.9,18.43,80.55,16.57,85.88,12.84Z" transform="translate(0)" style="fill:#0fadb9"/><path d="M83.08,12.21a6.58,6.58,0,0,1,2.44.47,13.66,13.66,0,0,0-2.89,1.43,6.46,6.46,0,0,0-1.38,1.2c-3,3.58,4.37,5.44-1,9.16a6.45,6.45,0,0,1,2.79-12.26Z" transform="translate(0)" style="fill:#0fadb9"/></svg>