<svg id="Layer_1" data-name="Layer 1" xmlns="http://www.w3.org/2000/svg" viewBox="0 0 714 74"><title>5</title><rect width="714" height="74" style="fill:#011552"/><g style="isolation:isolate"><text transform="translate(148.47 44.09)" style="isolation:isolate;font-size:21.048381805419922px;fill:#fff;font-family:OpenSans-Bold, Open Sans;font-weight:700">SINOVATE</text><text transform="translate(253.07 44.09)" style="isolation:isolate;font-size:21.048381805419922px;fill:#03f9db;font-family:OpenSans-Bold, Open Sans;font-weight:700"> </text><text transform="translate(264.66 44.09)" style="isolation:isolate;font-size:21.048381805419922px;fill:#0fadb9;font-family:OpenSans, Open Sans">Infinitynodes</text><text transform="translate(397.68 44.09)" style="isolation:isolate;font-size:21.048381805419922px;fill:#0fadb9;font-family:OpenSans-Bold, Open Sans;font-weight:700"><tspan xml:space="preserve"> (SIN)</tspan></text><text transform="translate(453.09 44.09)" style="isolation:isolate;font-size:21.048381805419922px;fill:#0fadb9;font-family:OpenSans, Open Sans"><tspan xml:space="preserve"> Blockchain Stats</tspan></text></g><path d="M131.61,23.77a13.12,13.12,0,0,1,4.89.81,28.24,28.24,0,0,0-5.72,2.84,13,13,0,0,0-2.71,2.37c-5.81,7,8.94,10.24-1.55,17.61a12.4,12.4,0,0,1-7.52-11,12.62,12.62,0,0,1,12.61-12.62" style="fill:#fff"/><path d="M137.22,24.87a12.39,12.39,0,0,1,7.53,11,12.63,12.63,0,0,1-12.62,12.65,13.59,13.59,0,0,1-4.89-.82A28.29,28.29,0,0,0,133,44.86a13,13,0,0,0,2.71-2.37c5.79-7-9-10.25,1.55-17.62" style="fill:#fff"/></svg>