<svg id="Layer_1" data-name="Layer 1" xmlns="http://www.w3.org/2000/svg" viewBox="0 0 452 40"><title>2</title><rect width="452" height="40" style="fill:#011552"/><text transform="translate(100.37 24.26)" style="font-size:14.7609224319458px;fill:#0fadb9;font-family:OpenSans-Bold, Open Sans;font-weight:700">Addresess<tspan x="75.02" y="0" xml:space="preserve" style="font-family:OpenSans, Open Sans;font-weight:400"> Stats</tspan></text><path d="M87.61,31.85v0h.11a.2.2,0,0,0,.2-.2V29.27l-1.06,2.58Z" transform="translate(0)" style="fill:#0fadb9"/><path d="M87.22,23.18V8.46a.2.2,0,0,0-.2-.21H85.51V7.44a.2.2,0,1,0-.4,0v.81H83.34V7.44a.2.2,0,0,0-.21-.2.2.2,0,0,0-.2.2v.81H81.16V7.44a.2.2,0,1,0-.4,0v.81H79V7.44a.2.2,0,0,0-.4,0v.81H76.82V7.44a.2.2,0,0,0-.2-.2.2.2,0,0,0-.21.2v.81H74.65V7.44a.2.2,0,0,0-.21-.2.2.2,0,0,0-.2.2v.81H72.47V7.44a.2.2,0,0,0-.4,0v.81H70.56a.2.2,0,0,0-.2.21V31.63a.18.18,0,0,0,.08.15v.07H83.66l3.53-8.61ZM72.47,9.47a.2.2,0,1,1-.4,0V8.66h.4Zm10.46-.81h.41v.81a.2.2,0,0,1-.21.2.2.2,0,0,1-.2-.2Zm-2.17,0h.4v.81a.2.2,0,1,1-.4,0Zm-2.17,0H79v.81a.2.2,0,1,1-.4,0Zm-2.18,0h.41v.81a.2.2,0,0,1-.2.2.2.2,0,0,1-.21-.2Zm-2.17,0h.41v.81a.2.2,0,0,1-.21.2.2.2,0,0,1-.2-.2Zm9.81,17.77H73.53a.2.2,0,0,1,0-.4H84.05a.2.2,0,1,1,0,.4Zm0-1.65H75.74a.2.2,0,1,1,0-.4h8.31a.2.2,0,1,1,0,.4Zm0-1.65H73.53a.2.2,0,0,1,0-.4H84.05a.2.2,0,1,1,0,.4ZM73.33,21.28a.21.21,0,0,1,.2-.21h7.89a.21.21,0,0,1,.2.21.2.2,0,0,1-.2.2H73.53A.2.2,0,0,1,73.33,21.28Zm10.72-1.45H76.81a.2.2,0,0,1,0-.4h7.24a.2.2,0,1,1,0,.4Zm0-1.65H73.53a.2.2,0,0,1-.2-.2.2.2,0,0,1,.2-.21H84.05a.2.2,0,0,1,.2.21A.2.2,0,0,1,84.05,18.18Zm0-1.66H73.53a.2.2,0,0,1,0-.4H84.05a.2.2,0,1,1,0,.4Zm.4-1.93a.2.2,0,0,1-.2.2H73.33a.2.2,0,0,1-.2-.2V12a.2.2,0,0,1,.2-.2H84.25a.2.2,0,0,1,.2.2Zm1.06-5.12a.2.2,0,1,1-.4,0V8.66h.4Z" transform="translate(0)" style="fill:#0fadb9"/><path d="M89.8,22.11l-.93-.38c-.33-.14-.78.18-1,.72l-.3.73,0,.06L84,31.85l-1,2.29v0a.06.06,0,0,0,0,0v0l-.23,2.54h0l-.1,1a.25.25,0,0,0,0,.09l0,0a.07.07,0,0,0,.06,0,.12.12,0,0,0,.07,0l2.21-2.69a.13.13,0,0,0,.06,0,.23.23,0,0,0,.07-.19l1.27-3.07,1.06-2.58,2.11-5.15.33-.79C90.23,22.79,90.14,22.25,89.8,22.11ZM83,34.25a.09.09,0,0,0,0,.08A.09.09,0,0,1,83,34.25Z" transform="translate(0)" style="fill:#0fadb9"/></svg>