<svg id="Layer_1" data-name="Layer 1" xmlns="http://www.w3.org/2000/svg" viewBox="0 0 452 40"><title>3</title><rect width="452" height="40" style="fill:#011552"/><text transform="translate(102.51 26.2)" style="font-size:15.467004776000977px;fill:#0fadb9;font-family:OpenSans-Bold, Open Sans;font-weight:700">Burn Coin<tspan x="76.08" y="0" xml:space="preserve" style="font-family:OpenSans, Open Sans;font-weight:400"> Stats</tspan></text><path d="M83.38,32.14s6.8-1.76,6.8-7.49S79.94,14.27,81.62,9.56c0,0-6.4,5.19-2.36,14.15a3.6,3.6,0,0,1-2.49-3.58S71.24,24.25,75.56,28s4.44,2,5.93,4.79c0,0-2.16-4.92-.88-6.87,0,0,.14,2.62,1,2.42a9.42,9.42,0,0,0-.6-5.59c-1.28-2.83,1-6.14,1-6.14s0,4.52,2.61,7S85.4,30.38,83.38,32.14Z" transform="translate(0)" style="fill:#0fadb9"/><path d="M81.54,34a7.8,7.8,0,0,0-.77-1,8.82,8.82,0,0,0-.89-.83c-.15-.13-.31-.26-.48-.38l-.5-.35a11.59,11.59,0,0,0-1.08-.62l-.57-.26L77,30.46l-.15-.05-.12-.05-.27-.1-.21-.1L76,30.05l-.22-.12a6.34,6.34,0,0,1-.87-.59,5.28,5.28,0,0,1-.79-.71,5.18,5.18,0,0,1-.64-.84,4.64,4.64,0,0,1-.45-1,4.73,4.73,0,0,1-.23-1,4.79,4.79,0,0,1,0-1.07,4.89,4.89,0,0,1,.09-.53l.06-.27.09-.26a6.54,6.54,0,0,1,.44-1c.09-.16.18-.33.28-.49s.2-.32.31-.47l.35-.46.37-.44,0,0a2.45,2.45,0,0,0,.3-.35,2.42,2.42,0,0,0,.21-.39,1.41,1.41,0,0,0,.06-.22,1.43,1.43,0,0,0,0-.22c0-.08,0-.15,0-.23a1.7,1.7,0,0,0,0-.22L75.24,19a1.74,1.74,0,0,0-.1-.19l0-.09L75,18.6l-.14-.16a1,1,0,0,0-.15-.14l-.15-.14-.33-.24-.08.12.28.26a1.66,1.66,0,0,1,.13.14l.13.15.1.15,0,.08,0,.09a.76.76,0,0,1,.06.16l.05.17c0,.06,0,.12,0,.17s0,.12,0,.17,0,.11,0,.17l-.07.15a1.32,1.32,0,0,1-.19.29l-.12.13a.57.57,0,0,1-.13.1h0l-.43.42-.41.45-.39.47-.36.5-.31.53c-.09.19-.19.37-.27.56l-.12.29-.1.3a6.25,6.25,0,0,0-.16.62,6.09,6.09,0,0,0-.11,1.28A6.19,6.19,0,0,0,72,27.14a7.25,7.25,0,0,0,.46,1.2,8.11,8.11,0,0,0,.68,1.1,8,8,0,0,0,.86,1,7.3,7.3,0,0,0,1,.79,6.54,6.54,0,0,0,.59.3l.34.13c.11.05.19.06.29.1l.28.08.27.08.53.17a23.36,23.36,0,0,1,4.13,2Z" transform="translate(0)" style="fill:#0fadb9"/><path d="M81,7.8l-.33.43c-.21.26-.5.65-.87,1.08-.18.22-.38.45-.6.68a7.3,7.3,0,0,1-.71.65l-.21.16-.22.17-.24.2-.22.21a6.64,6.64,0,0,0-.79.95,6.32,6.32,0,0,0-.58,1.09c-.08.19-.14.38-.2.57s-.1.39-.14.58-.06.37-.08.56,0,.36,0,.54,0,.34,0,.51v.23l0,.23c0,.15.06.29.08.43s.07.25.11.37l.09.32.11.27c.13.32.22.49.22.49s0-.2,0-.54a2.13,2.13,0,0,1,0-.27v-.33c0-.12,0-.24,0-.37s0-.26,0-.4V16.4a1.64,1.64,0,0,1,0-.22c0-.15,0-.3.06-.46l.09-.47c0-.15.08-.32.12-.48s.11-.32.16-.48.13-.32.21-.48a7.21,7.21,0,0,1,1.18-1.75q.18-.2.36-.36l.2-.19,0,0,0-.05.11-.1a5.48,5.48,0,0,0,.71-.86,8.31,8.31,0,0,0,.5-.83c.13-.26.24-.51.34-.73s.16-.42.21-.58S81,8,81,7.94Z" transform="translate(0)" style="fill:#0fadb9"/><path d="M82.7,5.65a2.22,2.22,0,0,0-.12.28c0,.09-.07.21-.11.35s-.06.31-.1.5,0,.39-.05.62V8a1.23,1.23,0,0,1,0,.2c0,.13,0,.27,0,.41a3.58,3.58,0,0,0,.08.43,4.08,4.08,0,0,0,.1.45c.05.15.1.3.14.46l.08.24a2.29,2.29,0,0,0,.1.23c.06.16.13.32.2.48a4.37,4.37,0,0,0,.25.48c.08.16.18.33.27.49a4.8,4.8,0,0,0,.3.48l.34.49c.1.16.24.31.36.47l.39.47c.06.07.13.16.2.23l.21.22.44.45a6.2,6.2,0,0,0,.45.44l.48.42.48.42.23.2.24.21.24.2.22.2c.15.14.3.26.44.41A13.22,13.22,0,0,1,90.18,19a9.41,9.41,0,0,1,1.08,2,8.07,8.07,0,0,1,.5,2.08,7.34,7.34,0,0,1,0,1.94,8.42,8.42,0,0,1-.9,2.81,6,6,0,0,1-.45.72l-.19.25.06-.05s.11-.08.18-.15a5.46,5.46,0,0,0,.6-.63,7.7,7.7,0,0,0,1.39-2.81A7.54,7.54,0,0,0,92.67,23a8.4,8.4,0,0,0-.39-2.38,9.72,9.72,0,0,0-1.12-2.32,11.7,11.7,0,0,0-1.68-2c-.15-.16-.33-.3-.49-.45l-.25-.23-.24-.2-1-.79c-.31-.26-.63-.51-.91-.79l-.43-.4-.21-.2c-.07-.06-.13-.14-.2-.21l-.39-.41c-.12-.14-.26-.27-.37-.42s-.46-.56-.66-.85l-.29-.42a4.94,4.94,0,0,1-.27-.42l-.24-.43a2,2,0,0,1-.11-.2l-.1-.21-.18-.41c-.06-.13-.1-.27-.15-.4a3.43,3.43,0,0,1-.13-.38l-.1-.38c0-.06,0-.12,0-.18l0-.17c0-.12,0-.23,0-.33s0-.42-.06-.6a6.32,6.32,0,0,1,0-.85A1.76,1.76,0,0,1,82.7,5.65Z" transform="translate(0)" style="fill:#0fadb9"/></svg>