<svg id="katman_1" data-name="katman 1" xmlns="http://www.w3.org/2000/svg" viewBox="0 0 50 20"><defs><style type="text/css">.cls-1{fill:#4F9FDD;}.cls-2{fill:#6f80ab;}</style></defs><title>setup</title><path class="cls-1" d="M8.57369,14.322a2.97517,2.97517,0,0,1-1.12182,2.45619,4.87318,4.87318,0,0,1-3.12141.89745,7.33064,7.33064,0,0,1-3.25917-.69277V14.71561a13.42971,13.42971,0,0,0,1.972.73213,5.835,5.835,0,0,0,1.47607.21256,2.09864,2.09864,0,0,0,1.232-.307,1.05012,1.05012,0,0,0,.42905-.91319,1.00807,1.00807,0,0,0-.18894-.60224,2.1141,2.1141,0,0,0-.555-.50777,14.27371,14.27371,0,0,0-1.49182-.77937,7.07106,7.07106,0,0,1-1.58236-.95256A3.576,3.576,0,0,1,1.52,10.53536a3.0328,3.0328,0,0,1-.3149-1.417A2.97454,2.97454,0,0,1,2.24034,6.71725,4.30163,4.30163,0,0,1,5.102,5.84341,6.75725,6.75725,0,0,1,6.81421,6.056a11.76859,11.76859,0,0,1,1.70437.5983L7.73134,8.55152A11.51579,11.51579,0,0,0,6.208,8.02407a4.903,4.903,0,0,0-1.18479-.14958,1.5689,1.5689,0,0,0-1.06278.32277,1.06468,1.06468,0,0,0-.37.84235A1.04251,1.04251,0,0,0,3.74,9.60248a1.64465,1.64465,0,0,0,.47628.46448,14.72828,14.72828,0,0,0,1.54693.80692A6.15524,6.15524,0,0,1,7.97539,12.4208,3.01911,3.01911,0,0,1,8.57369,14.322Z"/><path class="cls-1" d="M15.94488,17.51819H9.31632V6.00873h6.62856V8.00832H11.75677v2.527H15.6536V12.535H11.75677v2.9679h4.18811Z"/><path class="cls-1" d="M21.44245,17.51819H19.002V8.03981H15.87666V6.00873h8.69113V8.03981H21.44245Z"/><path class="cls-2" d="M35.94328,2.63729V12.84446a5.4543,5.4543,0,0,1-.57034,2.55215,3.93252,3.93252,0,0,1-1.6481,1.68047,5.27249,5.27249,0,0,1-2.54886.58412,4.51233,4.51233,0,0,1-3.44567-1.29854,4.96514,4.96514,0,0,1-1.22722-3.55415V6.0744h2.43085v6.31175a3.71992,3.71992,0,0,0,.53494,2.22864,2.0746,2.0746,0,0,0,1.77.70993,2.03227,2.03227,0,0,0,1.73463-.71442,3.7392,3.7392,0,0,0,.53888-2.24212V2.63729Z"/><path class="cls-2" d="M48,7.32975a4.49963,4.49963,0,0,1-1.48527,3.63514,6.35229,6.35229,0,0,1-4.22422,1.2587H40.95125v5.23622H37.82966V2.738h4.70252a6.25487,6.25487,0,0,1,4.07317,1.153A4.204,4.204,0,0,1,48,7.32975ZM40.95125,9.6659h1.0271A3.42058,3.42058,0,0,0,44.13326,9.097a1.99116,1.99116,0,0,0,.71494-1.65646,2.04168,2.04168,0,0,0-.59914-1.62121,2.80739,2.80739,0,0,0-1.878-.52362H40.95125Z"/></svg>