<svg id="katman_1" data-name="katman 1" xmlns="http://www.w3.org/2000/svg" viewBox="0 0 32 32"><defs><style type="text/css">.cls-1{fill:#004FFF;}</style></defs><title>icon</title><path class="cls-1" d="M7.42118,20.25712V8.43169H2.67285A2.58145,2.58145,0,0,0,.09132,11.01322V27.41847A2.58155,2.58155,0,0,0,2.67285,30h19.1013a2.58164,2.58164,0,0,0,2.58153-2.58153V22.83865h-14.353A2.58155,2.58155,0,0,1,7.42118,20.25712Z"/><path class="cls-1" d="M29.41847.95589H10.31717A2.58145,2.58145,0,0,0,7.73564,3.53742V19.94267a2.58154,2.58154,0,0,0,2.58153,2.58152h19.1013A2.58164,2.58164,0,0,0,32,19.94267V3.53742A2.58155,2.58155,0,0,0,29.41847.95589Z"/></svg>