<svg id="katman_1" data-name="katman 1" xmlns="http://www.w3.org/2000/svg" viewBox="0 0 220 32"><defs><style type="text/css">.cls-1{fill:#0e0e43;}.cls-2,.cls-3{fill:#fff;}.cls-3{font-size:16.11125px;font-family:Code-7x5, "Code 7x5";letter-spacing:-0.06801em;}</style></defs><title>yeni_logo_rev2</title><rect class="cls-1" width="220" height="32"/><path class="cls-2" d="M127.09311,20.61747a3.66739,3.66739,0,0,1-1.38439,3.02863,6.00541,6.00541,0,0,1-3.84851,1.10662,9.03583,9.03583,0,0,1-4.01876-.85423V21.10283a16.54853,16.54853,0,0,0,2.43127.90276,7.19952,7.19952,0,0,0,1.82046.2621,2.58606,2.58606,0,0,0,1.51879-.37858,1.29655,1.29655,0,0,0,.53016-1.126,1.24466,1.24466,0,0,0-.233-.743,2.60889,2.60889,0,0,0-.68547-.62574,17.47464,17.47464,0,0,0-1.83839-.961,8.69429,8.69429,0,0,1-1.95188-1.17456,4.41311,4.41311,0,0,1-1.03792-1.31047,3.72612,3.72612,0,0,1-.38828-1.74728,3.66654,3.66654,0,0,1,1.27537-2.96068,5.30657,5.30657,0,0,1,3.52892-1.0775,8.33957,8.33957,0,0,1,2.11168.2621,14.52993,14.52993,0,0,1,2.10122.73774l-.97072,2.33942a14.20428,14.20428,0,0,0-1.8787-.65038,6.02332,6.02332,0,0,0-1.46055-.18443,1.93973,1.93973,0,0,0-1.31122.398,1.315,1.315,0,0,0-.45548,1.03866,1.28821,1.28821,0,0,0,.18368.69369,2.04767,2.04767,0,0,0,.58841.57347,18.23643,18.23643,0,0,0,1.90708.99461,7.61068,7.61068,0,0,1,2.72845,1.90708A3.7278,3.7278,0,0,1,127.09311,20.61747Z"/><path class="cls-2" d="M137.83817,24.55857h-8.17342V10.36672h8.17342v2.46562H132.674v3.116h4.80429V18.414H132.674v3.65959h5.1642Z"/><path class="cls-2" d="M163.29629,6V16.866a4.72458,4.72458,0,0,1-.69145,2.88825,3.17547,3.17547,0,0,1-4.39958-.00672,4.46765,4.46765,0,0,1-.73476-2.85614v-6.5919l-18.06126.0672v2.50445h3.85448v11.6874h3.00922V12.87117h6.15731v4.41376a7.35544,7.35544,0,0,0,2.037,5.58535,9.787,9.787,0,0,0,11.78-.0575,7.49052,7.49052,0,0,0,2.06239-5.64209V6Z"/><path class="cls-2" d="M183.33979,11.90269a6.21693,6.21693,0,0,1-1.8354,4.805,7.40322,7.40322,0,0,1-5.2105,1.69427h-1.40978v6.15657h-5.01336V6h6.42314a7.8526,7.8526,0,0,1,5.28069,1.536A5.47746,5.47746,0,0,1,183.33979,11.90269Zm-8.45568,2.41186h.914a2.49377,2.49377,0,0,0,1.79657-.6347,2.3024,2.3024,0,0,0,.66755-1.75177q0-1.87833-2.08181-1.87871h-1.29628Z"/><text class="cls-3" transform="translate(39 22.57031)">reset</text></svg>