<svg id="katman_1" data-name="katman 1" xmlns="http://www.w3.org/2000/svg" viewBox="0 0 220 32"><defs><style type="text/css">.cls-1{fill:#0e0e43;}.cls-2{fill:aqua;}.cls-10,.cls-100,.cls-101,.cls-102,.cls-103,.cls-104,.cls-105,.cls-106,.cls-107,.cls-108,.cls-109,.cls-11,.cls-110,.cls-111,.cls-112,.cls-113,.cls-114,.cls-115,.cls-116,.cls-117,.cls-118,.cls-119,.cls-12,.cls-120,.cls-121,.cls-122,.cls-123,.cls-124,.cls-125,.cls-126,.cls-127,.cls-128,.cls-129,.cls-13,.cls-130,.cls-131,.cls-132,.cls-133,.cls-134,.cls-135,.cls-136,.cls-137,.cls-138,.cls-139,.cls-14,.cls-140,.cls-141,.cls-142,.cls-143,.cls-144,.cls-145,.cls-146,.cls-147,.cls-148,.cls-149,.cls-15,.cls-150,.cls-151,.cls-152,.cls-153,.cls-154,.cls-155,.cls-156,.cls-16,.cls-17,.cls-18,.cls-19,.cls-20,.cls-21,.cls-22,.cls-23,.cls-24,.cls-25,.cls-26,.cls-27,.cls-28,.cls-29,.cls-3,.cls-30,.cls-31,.cls-32,.cls-33,.cls-34,.cls-35,.cls-36,.cls-37,.cls-38,.cls-39,.cls-40,.cls-41,.cls-42,.cls-43,.cls-44,.cls-45,.cls-46,.cls-47,.cls-48,.cls-49,.cls-50,.cls-51,.cls-52,.cls-53,.cls-54,.cls-55,.cls-56,.cls-57,.cls-58,.cls-59,.cls-6,.cls-60,.cls-61,.cls-62,.cls-63,.cls-64,.cls-65,.cls-66,.cls-67,.cls-68,.cls-69,.cls-7,.cls-70,.cls-71,.cls-72,.cls-73,.cls-74,.cls-75,.cls-76,.cls-77,.cls-78,.cls-79,.cls-8,.cls-80,.cls-81,.cls-82,.cls-83,.cls-84,.cls-85,.cls-86,.cls-87,.cls-88,.cls-89,.cls-9,.cls-90,.cls-91,.cls-92,.cls-93,.cls-94,.cls-95,.cls-96,.cls-97,.cls-98,.cls-99{fill:#fff;}.cls-4{opacity:0.5;}.cls-5{opacity:0.43;}.cls-6{opacity:0;}.cls-7{opacity:0.00662;}.cls-8{opacity:0.01325;}.cls-9{opacity:0.01987;}.cls-10{opacity:0.02649;}.cls-11{opacity:0.03311;}.cls-12{opacity:0.03974;}.cls-13{opacity:0.04636;}.cls-14{opacity:0.05298;}.cls-15{opacity:0.0596;}.cls-16{opacity:0.06623;}.cls-17{opacity:0.07285;}.cls-18{opacity:0.07947;}.cls-19{opacity:0.08609;}.cls-20{opacity:0.09272;}.cls-21{opacity:0.09934;}.cls-22{opacity:0.10596;}.cls-23{opacity:0.11258;}.cls-24{opacity:0.11921;}.cls-25{opacity:0.12583;}.cls-26{opacity:0.13245;}.cls-27{opacity:0.13907;}.cls-28{opacity:0.1457;}.cls-29{opacity:0.15232;}.cls-30{opacity:0.15894;}.cls-31{opacity:0.16556;}.cls-32{opacity:0.17219;}.cls-33{opacity:0.17881;}.cls-34{opacity:0.18543;}.cls-35{opacity:0.19205;}.cls-36{opacity:0.19868;}.cls-37{opacity:0.2053;}.cls-38{opacity:0.21192;}.cls-39{opacity:0.21854;}.cls-40{opacity:0.22517;}.cls-41{opacity:0.23179;}.cls-42{opacity:0.23841;}.cls-43{opacity:0.24503;}.cls-44{opacity:0.25166;}.cls-45{opacity:0.25828;}.cls-46{opacity:0.2649;}.cls-47{opacity:0.27152;}.cls-48{opacity:0.27815;}.cls-49{opacity:0.28477;}.cls-50{opacity:0.29139;}.cls-51{opacity:0.29801;}.cls-52{opacity:0.30464;}.cls-53{opacity:0.31126;}.cls-54{opacity:0.31788;}.cls-55{opacity:0.3245;}.cls-56{opacity:0.33113;}.cls-57{opacity:0.33775;}.cls-58{opacity:0.34437;}.cls-59{opacity:0.35099;}.cls-60{opacity:0.35762;}.cls-61{opacity:0.36424;}.cls-62{opacity:0.37086;}.cls-63{opacity:0.37748;}.cls-64{opacity:0.38411;}.cls-65{opacity:0.39073;}.cls-66{opacity:0.39735;}.cls-67{opacity:0.40397;}.cls-68{opacity:0.4106;}.cls-69{opacity:0.41722;}.cls-70{opacity:0.42384;}.cls-71{opacity:0.43046;}.cls-72{opacity:0.43709;}.cls-73{opacity:0.44371;}.cls-74{opacity:0.45033;}.cls-75{opacity:0.45695;}.cls-76{opacity:0.46358;}.cls-77{opacity:0.4702;}.cls-78{opacity:0.47682;}.cls-79{opacity:0.48344;}.cls-80{opacity:0.49007;}.cls-81{opacity:0.49669;}.cls-82{opacity:0.50331;}.cls-83{opacity:0.50993;}.cls-84{opacity:0.51656;}.cls-85{opacity:0.52318;}.cls-86{opacity:0.5298;}.cls-87{opacity:0.53642;}.cls-88{opacity:0.54305;}.cls-89{opacity:0.54967;}.cls-90{opacity:0.55629;}.cls-91{opacity:0.56291;}.cls-92{opacity:0.56954;}.cls-93{opacity:0.57616;}.cls-94{opacity:0.58278;}.cls-95{opacity:0.5894;}.cls-96{opacity:0.59603;}.cls-97{opacity:0.60265;}.cls-98{opacity:0.60927;}.cls-99{opacity:0.61589;}.cls-100{opacity:0.62252;}.cls-101{opacity:0.62914;}.cls-102{opacity:0.63576;}.cls-103{opacity:0.64238;}.cls-104{opacity:0.64901;}.cls-105{opacity:0.65563;}.cls-106{opacity:0.66225;}.cls-107{opacity:0.66887;}.cls-108{opacity:0.6755;}.cls-109{opacity:0.68212;}.cls-110{opacity:0.68874;}.cls-111{opacity:0.69536;}.cls-112{opacity:0.70199;}.cls-113{opacity:0.70861;}.cls-114{opacity:0.71523;}.cls-115{opacity:0.72185;}.cls-116{opacity:0.72848;}.cls-117{opacity:0.7351;}.cls-118{opacity:0.74172;}.cls-119{opacity:0.74834;}.cls-120{opacity:0.75497;}.cls-121{opacity:0.76159;}.cls-122{opacity:0.76821;}.cls-123{opacity:0.77483;}.cls-124{opacity:0.78146;}.cls-125{opacity:0.78808;}.cls-126{opacity:0.7947;}.cls-127{opacity:0.80132;}.cls-128{opacity:0.80795;}.cls-129{opacity:0.81457;}.cls-130{opacity:0.82119;}.cls-131{opacity:0.82781;}.cls-132{opacity:0.83444;}.cls-133{opacity:0.84106;}.cls-134{opacity:0.84768;}.cls-135{opacity:0.8543;}.cls-136{opacity:0.86093;}.cls-137{opacity:0.86755;}.cls-138{opacity:0.87417;}.cls-139{opacity:0.88079;}.cls-140{opacity:0.88742;}.cls-141{opacity:0.89404;}.cls-142{opacity:0.90066;}.cls-143{opacity:0.90728;}.cls-144{opacity:0.91391;}.cls-145{opacity:0.92053;}.cls-146{opacity:0.92715;}.cls-147{opacity:0.93377;}.cls-148{opacity:0.9404;}.cls-149{opacity:0.94702;}.cls-150{opacity:0.95364;}.cls-151{opacity:0.96026;}.cls-152{opacity:0.96689;}.cls-153{opacity:0.97351;}.cls-154{opacity:0.98013;}.cls-155{opacity:0.98675;}.cls-156{opacity:0.99338;}</style></defs><title>yeni_logo_rev2</title><rect class="cls-1" width="220" height="32"/><path class="cls-2" d="M31.00392,30.941l-.0602-25.26645H26.26419V1.11576h9.35906l.0903,29.82522Z"/><path class="cls-3" d="M37.27539,31V13.84294h1.90638V15.7492h1.90638V19.562H39.18177V31Zm3.81276-9.53178V19.562h1.90638v1.90626Zm1.90638,1.90638V21.46822h1.90614V23.3746Zm1.90614,3.81276V23.3746H46.807v3.81276ZM48.71343,31V29.09362H46.807V27.18736h1.90638V13.84294h1.90638V31Z"/><path class="cls-3" d="M52.52619,27.18736V21.46822h1.90638v5.71914Zm1.90638-5.71914V19.562H56.339v1.90626Zm0,7.6254V27.18736H56.339v1.90626ZM56.339,19.562V17.65558h5.7189V19.562Zm0,11.438V29.09362h5.7189V31Zm5.7189-9.53178V19.562h1.90638v1.90626Zm0,7.6254V27.18736h1.90638v1.90626Zm1.90638-1.90626V21.46822h1.90638v5.71914Z"/><path class="cls-3" d="M67.777,27.18736V21.46822h1.90638v5.71914Zm1.90638-5.71914V19.562h1.90638v1.90626Zm0,7.6254V27.18736h1.90638v1.90626ZM71.58975,19.562V17.65558h5.71889V19.562Zm0,11.438V29.09362h5.71889V31ZM79.215,31V29.09362H77.30864V27.18736H79.215V21.46822H77.30864V19.562H79.215V15H81.1214V31Z"/><path class="cls-3" d="M83.02779,27.18736V21.46822h1.90638V23.3746h9.53165V21.46822H96.3722V25.281h-11.438v1.90638Zm1.90638-5.71914V19.562h1.90638v1.90626Zm0,7.6254V27.18736h1.90638v1.90626ZM86.84055,19.562V17.65558h5.71889V19.562Zm0,11.438V29.09362h5.71889V31Zm5.71889-9.53178V19.562h1.90638v1.90626Zm0,7.6254V27.18736h1.90638v1.90626Z"/><path class="cls-2" d="M48.62429,10.16621a.281.281,0,0,1,.28647,0l1.6367,1.4142a.1201.1201,0,0,1,0,.20957,7.74617,7.74617,0,0,1-5.07411,1.78077c-3.969,0-7.222-2.44426-7.222-6.28538C38.25132,3.60149,41.2589,1,45.47335,1a7.665,7.665,0,0,1,5.07411,1.79833.1201.1201,0,0,1,0,.20957l-1.6367,1.39675a.281.281,0,0,1-.28647,0,4.84261,4.84261,0,0,0-3.15094-1.135c-2.76193,0-4.43969,1.69366-4.43969,4.01568,0,2.47926,1.98464,4.01569,4.43969,4.01569A4.84248,4.84248,0,0,0,48.62429,10.16621Z"/><path class="cls-2" d="M60.63372,11.12649c.12271,0,.20459.06978.20459.13968v1.99034c0,.06978-.08188.13967-.20459.13967H53.10457c-.12271,0-.20459-.06989-.20459-.13967V1.31424c0-.06978.08188-.13956.20459-.13956h2.353a.17152.17152,0,0,1,.18394.13956v9.81225Z"/><path class="cls-2" d="M66.60806,3.26969v8.03137h1.43212c.1227,0,.20458.06978.20458.13967v1.81578c0,.06978-.08188.13967-.20458.13967h-5.6264c-.12271,0-.20459-.06989-.20459-.13967V11.44073c0-.06989.08188-.13967.20459-.13967H63.8663V3.26969H62.49566c-.12294,0-.20459-.06978-.20459-.13956V1.31424c0-.06978.08165-.13956.20459-.13956h5.46263c.12271,0,.20459.06978.20459.13956V3.13013c0,.06978-.08188.13956-.20459.13956Z"/><path class="cls-2" d="M80.23379,10.16621a.281.281,0,0,1,.28647,0l1.6367,1.4142a.1201.1201,0,0,1,0,.20957,7.74617,7.74617,0,0,1-5.07411,1.78077c-3.969,0-7.222-2.44426-7.222-6.28538C69.86082,3.60149,72.8684,1,77.08285,1A7.665,7.665,0,0,1,82.157,2.79833a.1201.1201,0,0,1,0,.20957l-1.6367,1.39675a.281.281,0,0,1-.28647,0,4.84261,4.84261,0,0,0-3.15094-1.135c-2.76193,0-4.43969,1.69366-4.43969,4.01568,0,2.47926,1.98464,4.01569,4.43969,4.01569A4.84248,4.84248,0,0,0,80.23379,10.16621Z"/><path class="cls-2" d="M90.19735,7.39016l5.7491,5.779c.1227.10478.02041.227-.16377.227H92.71387a.43289.43289,0,0,1-.16376-.05233L88.37647,8.944c-.34794.3318-.71606.73326-1.10482,1.06506v3.24742a.17186.17186,0,0,1-.18418.13967h-2.353c-.12271,0-.20459-.06989-.20459-.13967V1.31424c0-.06978.08188-.13956.20459-.13956h2.353a.17179.17179,0,0,1,.18418.13956V6.86635L92.6524,1.227a.43271.43271,0,0,1,.16376-.05234h2.9257c.18418,0,.28647.12211.16353.2269Z"/><g class="cls-4"><g class="cls-5"><polygon class="cls-6" points="106.54 21.919 95.655 9.403 95.623 26.004 99.272 22.381 101.636 28.332 103.668 27.455 101.38 21.695 106.54 21.919"/><polygon class="cls-7" points="106.568 21.903 95.684 9.387 95.652 25.988 99.3 22.365 101.664 28.316 103.696 27.439 101.408 21.679 106.568 21.903"/><polygon class="cls-8" points="106.597 21.887 95.712 9.371 95.68 25.972 99.329 22.349 101.692 28.3 103.724 27.423 101.437 21.663 106.597 21.887"/><polygon class="cls-9" points="106.625 21.871 95.74 9.355 95.708 25.955 99.357 22.333 101.72 28.284 103.752 27.407 101.465 21.647 106.625 21.871"/><polygon class="cls-10" points="106.653 21.854 95.769 9.339 95.737 25.939 99.385 22.317 101.749 28.268 103.781 27.391 101.493 21.631 106.653 21.854"/><polygon class="cls-11" points="106.682 21.838 95.797 9.323 95.765 25.923 99.414 22.301 101.777 28.252 103.809 27.375 101.521 21.615 106.682 21.838"/><polygon class="cls-12" points="106.71 21.822 95.825 9.307 95.793 25.907 99.442 22.285 101.805 28.236 103.837 27.359 101.55 21.599 106.71 21.822"/><polygon class="cls-13" points="106.738 21.806 95.854 9.291 95.821 25.891 99.47 22.269 101.834 28.22 103.866 27.343 101.578 21.583 106.738 21.806"/><polygon class="cls-14" points="106.767 21.79 95.882 9.274 95.85 25.875 99.499 22.253 101.862 28.204 103.894 27.327 101.606 21.567 106.767 21.79"/><polygon class="cls-15" points="106.795 21.774 95.91 9.258 95.878 25.859 99.527 22.237 101.89 28.188 103.922 27.311 101.635 21.551 106.795 21.774"/><polygon class="cls-16" points="106.823 21.758 95.939 9.242 95.906 25.843 99.555 22.221 101.919 28.172 103.951 27.295 101.663 21.535 106.823 21.758"/><polygon class="cls-17" points="106.852 21.742 95.967 9.226 95.935 25.827 99.583 22.205 101.947 28.156 103.979 27.279 101.691 21.519 106.852 21.742"/><polygon class="cls-18" points="106.88 21.726 95.995 9.21 95.963 25.811 99.612 22.189 101.975 28.14 104.007 27.263 101.72 21.503 106.88 21.726"/><polygon class="cls-19" points="106.908 21.71 96.023 9.194 95.991 25.795 99.64 22.173 102.004 28.124 104.036 27.247 101.748 21.487 106.908 21.71"/><polygon class="cls-20" points="106.936 21.694 96.052 9.178 96.02 25.779 99.668 22.157 102.032 28.108 104.064 27.231 101.776 21.471 106.936 21.694"/><polygon class="cls-21" points="106.965 21.678 96.08 9.162 96.048 25.763 99.697 22.141 102.06 28.092 104.092 27.214 101.805 21.455 106.965 21.678"/><polygon class="cls-22" points="106.993 21.662 96.108 9.146 96.076 25.747 99.725 22.125 102.088 28.076 104.121 27.198 101.833 21.439 106.993 21.662"/><polygon class="cls-23" points="107.021 21.646 96.137 9.13 96.105 25.731 99.753 22.109 102.117 28.059 104.149 27.182 101.861 21.422 107.021 21.646"/><polygon class="cls-24" points="107.05 21.63 96.165 9.114 96.133 25.715 99.782 22.093 102.145 28.043 104.177 27.166 101.89 21.406 107.05 21.63"/><polygon class="cls-25" points="107.078 21.614 96.193 9.098 96.161 25.699 99.81 22.076 102.173 28.027 104.205 27.15 101.918 21.39 107.078 21.614"/><polygon class="cls-26" points="107.106 21.598 96.222 9.082 96.19 25.683 99.838 22.06 102.202 28.011 104.234 27.134 101.946 21.374 107.106 21.598"/><polygon class="cls-27" points="107.135 21.582 96.25 9.066 96.218 25.667 99.867 22.044 102.23 27.995 104.262 27.118 101.974 21.358 107.135 21.582"/><polygon class="cls-28" points="107.163 21.565 96.278 9.05 96.246 25.65 99.895 22.028 102.258 27.979 104.29 27.102 102.003 21.342 107.163 21.565"/><polygon class="cls-29" points="107.191 21.549 96.307 9.034 96.274 25.634 99.923 22.012 102.287 27.963 104.319 27.086 102.031 21.326 107.191 21.549"/><polygon class="cls-30" points="107.22 21.533 96.335 9.018 96.303 25.618 99.952 21.996 102.315 27.947 104.347 27.07 102.059 21.31 107.22 21.533"/><polygon class="cls-31" points="107.248 21.517 96.363 9.002 96.331 25.602 99.98 21.98 102.343 27.931 104.375 27.054 102.088 21.294 107.248 21.517"/><polygon class="cls-32" points="107.276 21.501 96.392 8.985 96.359 25.586 100.008 21.964 102.372 27.915 104.404 27.038 102.116 21.278 107.276 21.501"/><polygon class="cls-33" points="107.305 21.485 96.42 8.969 96.388 25.57 100.036 21.948 102.4 27.899 104.432 27.022 102.144 21.262 107.305 21.485"/><polygon class="cls-34" points="107.333 21.469 96.448 8.953 96.416 25.554 100.065 21.932 102.428 27.883 104.46 27.006 102.173 21.246 107.333 21.469"/><polygon class="cls-35" points="107.361 21.453 96.476 8.937 96.444 25.538 100.093 21.916 102.457 27.867 104.489 26.99 102.201 21.23 107.361 21.453"/><polygon class="cls-36" points="107.389 21.437 96.505 8.921 96.473 25.522 100.121 21.9 102.485 27.851 104.517 26.974 102.229 21.214 107.389 21.437"/><polygon class="cls-37" points="107.418 21.421 96.533 8.905 96.501 25.506 100.15 21.884 102.513 27.835 104.545 26.958 102.258 21.198 107.418 21.421"/><polygon class="cls-38" points="107.446 21.405 96.561 8.889 96.529 25.49 100.178 21.868 102.541 27.819 104.574 26.942 102.286 21.182 107.446 21.405"/><polygon class="cls-39" points="107.474 21.389 96.59 8.873 96.558 25.474 100.206 21.852 102.57 27.803 104.602 26.925 102.314 21.166 107.474 21.389"/><polygon class="cls-40" points="107.503 21.373 96.618 8.857 96.586 25.458 100.235 21.836 102.598 27.787 104.63 26.909 102.343 21.15 107.503 21.373"/><polygon class="cls-41" points="107.531 21.357 96.646 8.841 96.614 25.442 100.263 21.82 102.626 27.771 104.658 26.893 102.371 21.134 107.531 21.357"/><polygon class="cls-42" points="107.559 21.341 96.675 8.825 96.643 25.426 100.291 21.804 102.655 27.754 104.687 26.877 102.399 21.117 107.559 21.341"/><polygon class="cls-43" points="107.588 21.325 96.703 8.809 96.671 25.41 100.32 21.788 102.683 27.738 104.715 26.861 102.427 21.101 107.588 21.325"/><polygon class="cls-44" points="107.616 21.309 96.731 8.793 96.699 25.394 100.348 21.771 102.711 27.722 104.743 26.845 102.456 21.085 107.616 21.309"/><polygon class="cls-45" points="107.644 21.293 96.76 8.777 96.727 25.378 100.376 21.755 102.74 27.706 104.772 26.829 102.484 21.069 107.644 21.293"/><polygon class="cls-46" points="107.673 21.277 96.788 8.761 96.756 25.361 100.405 21.739 102.768 27.69 104.8 26.813 102.512 21.053 107.673 21.277"/><polygon class="cls-47" points="107.701 21.26 96.816 8.745 96.784 25.345 100.433 21.723 102.796 27.674 104.828 26.797 102.541 21.037 107.701 21.26"/><polygon class="cls-48" points="107.729 21.244 96.845 8.729 96.812 25.329 100.461 21.707 102.825 27.658 104.857 26.781 102.569 21.021 107.729 21.244"/><polygon class="cls-49" points="107.758 21.228 96.873 8.713 96.841 25.313 100.489 21.691 102.853 27.642 104.885 26.765 102.597 21.005 107.758 21.228"/><polygon class="cls-50" points="107.786 21.212 96.901 8.697 96.869 25.297 100.518 21.675 102.881 27.626 104.913 26.749 102.626 20.989 107.786 21.212"/><polygon class="cls-51" points="107.814 21.196 96.929 8.68 96.897 25.281 100.546 21.659 102.91 27.61 104.942 26.733 102.654 20.973 107.814 21.196"/><polygon class="cls-52" points="107.842 21.18 96.958 8.664 96.926 25.265 100.574 21.643 102.938 27.594 104.97 26.717 102.682 20.957 107.842 21.18"/><polygon class="cls-53" points="107.871 21.164 96.986 8.648 96.954 25.249 100.603 21.627 102.966 27.578 104.998 26.701 102.711 20.941 107.871 21.164"/><polygon class="cls-54" points="107.899 21.148 97.014 8.632 96.982 25.233 100.631 21.611 102.994 27.562 105.026 26.685 102.739 20.925 107.899 21.148"/><polygon class="cls-55" points="107.927 21.132 97.043 8.616 97.011 25.217 100.659 21.595 103.023 27.546 105.055 26.669 102.767 20.909 107.927 21.132"/><polygon class="cls-56" points="107.956 21.116 97.071 8.6 97.039 25.201 100.688 21.579 103.051 27.53 105.083 26.653 102.796 20.893 107.956 21.116"/><polygon class="cls-57" points="107.984 21.1 97.099 8.584 97.067 25.185 100.716 21.563 103.079 27.514 105.111 26.637 102.824 20.877 107.984 21.1"/><polygon class="cls-58" points="108.012 21.084 97.128 8.568 97.095 25.169 100.744 21.547 103.108 27.498 105.14 26.62 102.852 20.861 108.012 21.084"/><polygon class="cls-59" points="108.041 21.068 97.156 8.552 97.124 25.153 100.773 21.531 103.136 27.482 105.168 26.604 102.88 20.845 108.041 21.068"/><polygon class="cls-60" points="108.069 21.052 97.184 8.536 97.152 25.137 100.801 21.515 103.164 27.465 105.196 26.588 102.909 20.828 108.069 21.052"/><polygon class="cls-61" points="108.097 21.036 97.213 8.52 97.18 25.121 100.829 21.499 103.193 27.449 105.225 26.572 102.937 20.812 108.097 21.036"/><polygon class="cls-62" points="108.126 21.02 97.241 8.504 97.209 25.105 100.858 21.482 103.221 27.433 105.253 26.556 102.965 20.796 108.126 21.02"/><polygon class="cls-63" points="108.154 21.004 97.269 8.488 97.237 25.089 100.886 21.466 103.249 27.417 105.281 26.54 102.994 20.78 108.154 21.004"/><polygon class="cls-64" points="108.182 20.988 97.298 8.472 97.265 25.073 100.914 21.45 103.278 27.401 105.31 26.524 103.022 20.764 108.182 20.988"/><polygon class="cls-65" points="108.211 20.972 97.326 8.456 97.294 25.056 100.942 21.434 103.306 27.385 105.338 26.508 103.05 20.748 108.211 20.972"/><polygon class="cls-66" points="108.239 20.955 97.354 8.44 97.322 25.04 100.971 21.418 103.334 27.369 105.366 26.492 103.079 20.732 108.239 20.955"/><polygon class="cls-67" points="108.267 20.939 97.382 8.424 97.35 25.024 100.999 21.402 103.363 27.353 105.395 26.476 103.107 20.716 108.267 20.939"/><polygon class="cls-68" points="108.295 20.923 97.411 8.408 97.379 25.008 101.027 21.386 103.391 27.337 105.423 26.46 103.135 20.7 108.295 20.923"/><polygon class="cls-69" points="108.324 20.907 97.439 8.392 97.407 24.992 101.056 21.37 103.419 27.321 105.451 26.444 103.164 20.684 108.324 20.907"/><polygon class="cls-70" points="108.352 20.891 97.467 8.375 97.435 24.976 101.084 21.354 103.447 27.305 105.479 26.428 103.192 20.668 108.352 20.891"/><polygon class="cls-71" points="108.38 20.875 97.496 8.359 97.464 24.96 101.112 21.338 103.476 27.289 105.508 26.412 103.22 20.652 108.38 20.875"/><polygon class="cls-72" points="108.409 20.859 97.524 8.343 97.492 24.944 101.141 21.322 103.504 27.273 105.536 26.396 103.249 20.636 108.409 20.859"/><polygon class="cls-73" points="108.437 20.843 97.552 8.327 97.52 24.928 101.169 21.306 103.532 27.257 105.564 26.38 103.277 20.62 108.437 20.843"/><polygon class="cls-74" points="108.465 20.827 97.581 8.311 97.548 24.912 101.197 21.29 103.561 27.241 105.593 26.364 103.305 20.604 108.465 20.827"/><polygon class="cls-75" points="108.494 20.811 97.609 8.295 97.577 24.896 101.226 21.274 103.589 27.225 105.621 26.348 103.333 20.588 108.494 20.811"/><polygon class="cls-76" points="108.522 20.795 97.637 8.279 97.605 24.88 101.254 21.258 103.617 27.209 105.649 26.332 103.362 20.572 108.522 20.795"/><polygon class="cls-77" points="108.55 20.779 97.666 8.263 97.633 24.864 101.282 21.242 103.646 27.193 105.678 26.315 103.39 20.556 108.55 20.779"/><polygon class="cls-78" points="108.579 20.763 97.694 8.247 97.662 24.848 101.311 21.226 103.674 27.177 105.706 26.299 103.418 20.54 108.579 20.763"/><polygon class="cls-79" points="108.607 20.747 97.722 8.231 97.69 24.832 101.339 21.21 103.702 27.16 105.734 26.283 103.447 20.523 108.607 20.747"/><polygon class="cls-80" points="108.635 20.731 97.751 8.215 97.718 24.816 101.367 21.194 103.731 27.144 105.763 26.267 103.475 20.507 108.635 20.731"/><polygon class="cls-81" points="108.664 20.715 97.779 8.199 97.747 24.8 101.395 21.177 103.759 27.128 105.791 26.251 103.503 20.491 108.664 20.715"/><polygon class="cls-82" points="108.692 20.699 97.807 8.183 97.775 24.784 101.424 21.161 103.787 27.112 105.819 26.235 103.532 20.475 108.692 20.699"/><polygon class="cls-83" points="108.72 20.683 97.835 8.167 97.803 24.767 101.452 21.145 103.816 27.096 105.848 26.219 103.56 20.459 108.72 20.683"/><polygon class="cls-84" points="108.748 20.666 97.864 8.151 97.832 24.751 101.48 21.129 103.844 27.08 105.876 26.203 103.588 20.443 108.748 20.666"/><polygon class="cls-85" points="108.777 20.65 97.892 8.135 97.86 24.735 101.509 21.113 103.872 27.064 105.904 26.187 103.617 20.427 108.777 20.65"/><polygon class="cls-86" points="108.805 20.634 97.92 8.119 97.888 24.719 101.537 21.097 103.9 27.048 105.932 26.171 103.645 20.411 108.805 20.634"/><polygon class="cls-87" points="108.833 20.618 97.949 8.103 97.917 24.703 101.565 21.081 103.929 27.032 105.961 26.155 103.673 20.395 108.833 20.618"/><polygon class="cls-88" points="108.862 20.602 97.977 8.086 97.945 24.687 101.594 21.065 103.957 27.016 105.989 26.139 103.701 20.379 108.862 20.602"/><polygon class="cls-89" points="108.89 20.586 98.005 8.07 97.973 24.671 101.622 21.049 103.985 27 106.017 26.123 103.73 20.363 108.89 20.586"/><polygon class="cls-90" points="108.918 20.57 98.034 8.054 98.001 24.655 101.65 21.033 104.014 26.984 106.046 26.107 103.758 20.347 108.918 20.57"/><polygon class="cls-91" points="108.947 20.554 98.062 8.038 98.03 24.639 101.679 21.017 104.042 26.968 106.074 26.091 103.786 20.331 108.947 20.554"/><polygon class="cls-92" points="108.975 20.538 98.09 8.022 98.058 24.623 101.707 21.001 104.07 26.952 106.102 26.075 103.815 20.315 108.975 20.538"/><polygon class="cls-93" points="109.003 20.522 98.119 8.006 98.086 24.607 101.735 20.985 104.099 26.936 106.131 26.059 103.843 20.299 109.003 20.522"/><polygon class="cls-94" points="109.032 20.506 98.147 7.99 98.115 24.591 101.764 20.969 104.127 26.92 106.159 26.043 103.871 20.283 109.032 20.506"/><polygon class="cls-95" points="109.06 20.49 98.175 7.974 98.143 24.575 101.792 20.953 104.155 26.904 106.187 26.026 103.9 20.267 109.06 20.49"/><polygon class="cls-96" points="109.088 20.474 98.203 7.958 98.171 24.559 101.82 20.937 104.184 26.888 106.216 26.01 103.928 20.251 109.088 20.474"/><polygon class="cls-97" points="109.117 20.458 98.232 7.942 98.2 24.543 101.848 20.921 104.212 26.871 106.244 25.994 103.956 20.234 109.117 20.458"/><polygon class="cls-98" points="109.145 20.442 98.26 7.926 98.228 24.527 101.877 20.905 104.24 26.855 106.272 25.978 103.985 20.218 109.145 20.442"/><polygon class="cls-99" points="109.173 20.426 98.288 7.91 98.256 24.511 101.905 20.888 104.269 26.839 106.301 25.962 104.013 20.202 109.173 20.426"/><polygon class="cls-100" points="109.201 20.41 98.317 7.894 98.285 24.495 101.933 20.872 104.297 26.823 106.329 25.946 104.041 20.186 109.201 20.41"/><polygon class="cls-101" points="109.23 20.394 98.345 7.878 98.313 24.479 101.962 20.856 104.325 26.807 106.357 25.93 104.07 20.17 109.23 20.394"/><polygon class="cls-102" points="109.258 20.378 98.373 7.862 98.341 24.462 101.99 20.84 104.353 26.791 106.385 25.914 104.098 20.154 109.258 20.378"/><polygon class="cls-103" points="109.286 20.361 98.402 7.846 98.37 24.446 102.018 20.824 104.382 26.775 106.414 25.898 104.126 20.138 109.286 20.361"/><polygon class="cls-104" points="109.315 20.345 98.43 7.83 98.398 24.43 102.047 20.808 104.41 26.759 106.442 25.882 104.154 20.122 109.315 20.345"/><polygon class="cls-105" points="109.343 20.329 98.458 7.814 98.426 24.414 102.075 20.792 104.438 26.743 106.47 25.866 104.183 20.106 109.343 20.329"/><polygon class="cls-106" points="109.371 20.313 98.487 7.798 98.454 24.398 102.103 20.776 104.467 26.727 106.499 25.85 104.211 20.09 109.371 20.313"/><polygon class="cls-107" points="109.4 20.297 98.515 7.781 98.483 24.382 102.132 20.76 104.495 26.711 106.527 25.834 104.239 20.074 109.4 20.297"/><polygon class="cls-108" points="109.428 20.281 98.543 7.765 98.511 24.366 102.16 20.744 104.523 26.695 106.555 25.818 104.268 20.058 109.428 20.281"/><polygon class="cls-109" points="109.456 20.265 98.572 7.749 98.539 24.35 102.188 20.728 104.552 26.679 106.584 25.802 104.296 20.042 109.456 20.265"/><polygon class="cls-110" points="109.485 20.249 98.6 7.733 98.568 24.334 102.216 20.712 104.58 26.663 106.612 25.786 104.324 20.026 109.485 20.249"/><polygon class="cls-111" points="109.513 20.233 98.628 7.717 98.596 24.318 102.245 20.696 104.608 26.647 106.64 25.77 104.353 20.01 109.513 20.233"/><polygon class="cls-112" points="109.541 20.217 98.656 7.701 98.624 24.302 102.273 20.68 104.637 26.631 106.669 25.754 104.381 19.994 109.541 20.217"/><polygon class="cls-113" points="109.569 20.201 98.685 7.685 98.653 24.286 102.301 20.664 104.665 26.615 106.697 25.738 104.409 19.978 109.569 20.201"/><polygon class="cls-114" points="109.598 20.185 98.713 7.669 98.681 24.27 102.33 20.648 104.693 26.599 106.725 25.721 104.438 19.962 109.598 20.185"/><polygon class="cls-115" points="109.626 20.169 98.741 7.653 98.709 24.254 102.358 20.632 104.721 26.583 106.754 25.705 104.466 19.946 109.626 20.169"/><polygon class="cls-116" points="109.654 20.153 98.77 7.637 98.738 24.238 102.386 20.616 104.75 26.566 106.782 25.689 104.494 19.929 109.654 20.153"/><polygon class="cls-117" points="109.683 20.137 98.798 7.621 98.766 24.222 102.415 20.6 104.778 26.55 106.81 25.673 104.523 19.913 109.683 20.137"/><polygon class="cls-118" points="109.711 20.121 98.826 7.605 98.794 24.206 102.443 20.583 104.806 26.534 106.838 25.657 104.551 19.897 109.711 20.121"/><polygon class="cls-119" points="109.739 20.105 98.855 7.589 98.823 24.19 102.471 20.567 104.835 26.518 106.867 25.641 104.579 19.881 109.739 20.105"/><polygon class="cls-120" points="109.768 20.089 98.883 7.573 98.851 24.174 102.5 20.551 104.863 26.502 106.895 25.625 104.607 19.865 109.768 20.089"/><polygon class="cls-121" points="109.796 20.073 98.911 7.557 98.879 24.157 102.528 20.535 104.891 26.486 106.923 25.609 104.636 19.849 109.796 20.073"/><polygon class="cls-122" points="109.824 20.056 98.94 7.541 98.907 24.141 102.556 20.519 104.92 26.47 106.952 25.593 104.664 19.833 109.824 20.056"/><polygon class="cls-123" points="109.853 20.04 98.968 7.525 98.936 24.125 102.585 20.503 104.948 26.454 106.98 25.577 104.692 19.817 109.853 20.04"/><polygon class="cls-124" points="109.881 20.024 98.996 7.509 98.964 24.109 102.613 20.487 104.976 26.438 107.008 25.561 104.721 19.801 109.881 20.024"/><polygon class="cls-125" points="109.909 20.008 99.025 7.493 98.992 24.093 102.641 20.471 105.005 26.422 107.037 25.545 104.749 19.785 109.909 20.008"/><polygon class="cls-126" points="109.938 19.992 99.053 7.476 99.021 24.077 102.669 20.455 105.033 26.406 107.065 25.529 104.777 19.769 109.938 19.992"/><polygon class="cls-127" points="109.966 19.976 99.081 7.46 99.049 24.061 102.698 20.439 105.061 26.39 107.093 25.513 104.806 19.753 109.966 19.976"/><polygon class="cls-128" points="109.994 19.96 99.109 7.444 99.077 24.045 102.726 20.423 105.09 26.374 107.122 25.497 104.834 19.737 109.994 19.96"/><polygon class="cls-129" points="110.022 19.944 99.138 7.428 99.106 24.029 102.754 20.407 105.118 26.358 107.15 25.481 104.862 19.721 110.022 19.944"/><polygon class="cls-130" points="110.051 19.928 99.166 7.412 99.134 24.013 102.783 20.391 105.146 26.342 107.178 25.465 104.891 19.705 110.051 19.928"/><polygon class="cls-131" points="110.079 19.912 99.194 7.396 99.162 23.997 102.811 20.375 105.174 26.326 107.206 25.449 104.919 19.689 110.079 19.912"/><polygon class="cls-132" points="110.107 19.896 99.223 7.38 99.191 23.981 102.839 20.359 105.203 26.31 107.235 25.433 104.947 19.673 110.107 19.896"/><polygon class="cls-133" points="110.136 19.88 99.251 7.364 99.219 23.965 102.868 20.343 105.231 26.294 107.263 25.416 104.976 19.657 110.136 19.88"/><polygon class="cls-134" points="110.164 19.864 99.279 7.348 99.247 23.949 102.896 20.327 105.259 26.278 107.291 25.4 105.004 19.641 110.164 19.864"/><polygon class="cls-135" points="110.192 19.848 99.308 7.332 99.276 23.933 102.924 20.311 105.288 26.261 107.32 25.384 105.032 19.624 110.192 19.848"/><polygon class="cls-136" points="110.221 19.832 99.336 7.316 99.304 23.917 102.953 20.295 105.316 26.245 107.348 25.368 105.06 19.608 110.221 19.832"/><polygon class="cls-137" points="110.249 19.816 99.364 7.3 99.332 23.901 102.981 20.278 105.344 26.229 107.376 25.352 105.089 19.592 110.249 19.816"/><polygon class="cls-138" points="110.277 19.8 99.393 7.284 99.36 23.885 103.009 20.262 105.373 26.213 107.405 25.336 105.117 19.576 110.277 19.8"/><polygon class="cls-139" points="110.306 19.784 99.421 7.268 99.389 23.868 103.038 20.246 105.401 26.197 107.433 25.32 105.145 19.56 110.306 19.784"/><polygon class="cls-140" points="110.334 19.767 99.449 7.252 99.417 23.852 103.066 20.23 105.429 26.181 107.461 25.304 105.174 19.544 110.334 19.767"/><polygon class="cls-141" points="110.362 19.751 99.478 7.236 99.445 23.836 103.094 20.214 105.458 26.165 107.49 25.288 105.202 19.528 110.362 19.751"/><polygon class="cls-142" points="110.391 19.735 99.506 7.22 99.474 23.82 103.122 20.198 105.486 26.149 107.518 25.272 105.23 19.512 110.391 19.735"/><polygon class="cls-143" points="110.419 19.719 99.534 7.204 99.502 23.804 103.151 20.182 105.514 26.133 107.546 25.256 105.259 19.496 110.419 19.719"/><polygon class="cls-144" points="110.447 19.703 99.562 7.187 99.53 23.788 103.179 20.166 105.543 26.117 107.575 25.24 105.287 19.48 110.447 19.703"/><polygon class="cls-145" points="110.475 19.687 99.591 7.171 99.559 23.772 103.207 20.15 105.571 26.101 107.603 25.224 105.315 19.464 110.475 19.687"/><polygon class="cls-146" points="110.504 19.671 99.619 7.155 99.587 23.756 103.236 20.134 105.599 26.085 107.631 25.208 105.344 19.448 110.504 19.671"/><polygon class="cls-147" points="110.532 19.655 99.647 7.139 99.615 23.74 103.264 20.118 105.627 26.069 107.659 25.192 105.372 19.432 110.532 19.655"/><polygon class="cls-148" points="110.56 19.639 99.676 7.123 99.644 23.724 103.292 20.102 105.656 26.053 107.688 25.176 105.4 19.416 110.56 19.639"/><polygon class="cls-149" points="110.589 19.623 99.704 7.107 99.672 23.708 103.321 20.086 105.684 26.037 107.716 25.16 105.429 19.4 110.589 19.623"/><polygon class="cls-150" points="110.617 19.607 99.732 7.091 99.7 23.692 103.349 20.07 105.712 26.021 107.744 25.144 105.457 19.384 110.617 19.607"/><polygon class="cls-151" points="110.645 19.591 99.761 7.075 99.728 23.676 103.377 20.054 105.741 26.005 107.773 25.127 105.485 19.368 110.645 19.591"/><polygon class="cls-152" points="110.674 19.575 99.789 7.059 99.757 23.66 103.406 20.038 105.769 25.989 107.801 25.111 105.513 19.352 110.674 19.575"/><polygon class="cls-153" points="110.702 19.559 99.817 7.043 99.785 23.644 103.434 20.022 105.797 25.972 107.829 25.095 105.542 19.335 110.702 19.559"/><polygon class="cls-154" points="110.73 19.543 99.846 7.027 99.813 23.628 103.462 20.006 105.826 25.956 107.858 25.079 105.57 19.319 110.73 19.543"/><polygon class="cls-155" points="110.759 19.527 99.874 7.011 99.842 23.612 103.491 19.989 105.854 25.94 107.886 25.063 105.598 19.303 110.759 19.527"/><polygon class="cls-156" points="110.787 19.511 99.902 6.995 99.87 23.596 103.519 19.973 105.882 25.924 107.914 25.047 105.627 19.287 110.787 19.511"/><polygon class="cls-3" points="110.815 19.495 99.931 6.979 99.898 23.58 103.547 19.957 105.911 25.908 107.943 25.031 105.655 19.271 110.815 19.495"/></g><polygon class="cls-3" points="110.808 19.495 99.923 6.979 99.891 23.58 103.54 19.957 105.903 25.908 107.935 25.031 105.647 19.271 110.808 19.495"/></g><path class="cls-3" d="M133.09311,20.61747a3.66739,3.66739,0,0,1-1.38439,3.02863,6.00541,6.00541,0,0,1-3.84851,1.10662,9.03583,9.03583,0,0,1-4.01876-.85423V21.10283a16.54853,16.54853,0,0,0,2.43127.90276,7.19952,7.19952,0,0,0,1.82046.2621,2.58606,2.58606,0,0,0,1.51879-.37858,1.29655,1.29655,0,0,0,.53016-1.126,1.24466,1.24466,0,0,0-.233-.743,2.60889,2.60889,0,0,0-.68547-.62574,17.47464,17.47464,0,0,0-1.83839-.961,8.69429,8.69429,0,0,1-1.95188-1.17456,4.41311,4.41311,0,0,1-1.03792-1.31047,3.72612,3.72612,0,0,1-.38828-1.74728,3.66654,3.66654,0,0,1,1.27537-2.96068,5.30657,5.30657,0,0,1,3.52892-1.0775,8.33957,8.33957,0,0,1,2.11168.2621,14.52993,14.52993,0,0,1,2.10122.73774l-.97072,2.33942a14.20428,14.20428,0,0,0-1.8787-.65038,6.02332,6.02332,0,0,0-1.46055-.18443,1.93973,1.93973,0,0,0-1.31122.398,1.315,1.315,0,0,0-.45548,1.03866,1.28821,1.28821,0,0,0,.18368.69369,2.04767,2.04767,0,0,0,.58841.57347,18.23643,18.23643,0,0,0,1.90708.99461,7.61068,7.61068,0,0,1,2.72845,1.90708A3.7278,3.7278,0,0,1,133.09311,20.61747Z"/><path class="cls-3" d="M143.83817,24.55857h-8.17342V10.36672h8.17342v2.46562H138.674v3.116h4.80429V18.414H138.674v3.65959h5.1642Z"/><path class="cls-3" d="M169.29629,6V16.866a4.72458,4.72458,0,0,1-.69145,2.88825,3.17547,3.17547,0,0,1-4.39958-.00672,4.46765,4.46765,0,0,1-.73476-2.85614v-6.5919l-18.06126.0672v2.50445h3.85448v11.6874h3.00922V12.87117h6.15731v4.41376a7.35544,7.35544,0,0,0,2.037,5.58535,9.787,9.787,0,0,0,11.78-.0575,7.49052,7.49052,0,0,0,2.06239-5.64209V6Z"/><path class="cls-3" d="M189.33979,11.90269a6.21693,6.21693,0,0,1-1.8354,4.805,7.40322,7.40322,0,0,1-5.2105,1.69427h-1.40978v6.15657h-5.01336V6h6.42314a7.8526,7.8526,0,0,1,5.28069,1.536A5.47746,5.47746,0,0,1,189.33979,11.90269Zm-8.45568,2.41186h.914a2.49377,2.49377,0,0,0,1.79657-.6347,2.3024,2.3024,0,0,0,.66755-1.75177q0-1.87833-2.08181-1.87871h-1.29628Z"/></svg>