<svg id="katman_1" data-name="katman 1" xmlns="http://www.w3.org/2000/svg" viewBox="0 0 500 300"><defs><style type="text/css">.cls-1{fill:#16b1c5;}.cls-2{fill:#f9f9f9;}</style></defs><title>1-clicksetup</title><path class="cls-1" d="M103.08219,208.81174q0,14.98143-10.78209,23.60709T62.29943,241.0445q-17.70531,0-31.32479-6.65841V212.59493a128.99955,128.99955,0,0,0,18.95377,7.03673,56.08531,56.08531,0,0,0,14.18695,2.04292q7.7177,0,11.84137-2.95088t4.12368-8.777a9.68912,9.68912,0,0,0-1.81593-5.78828,20.32023,20.32023,0,0,0-5.33429-4.88031,137.19569,137.19569,0,0,0-14.33828-7.49071q-10.14052-4.7668-15.20842-9.15531a34.35269,34.35269,0,0,1-8.096-10.2146A29.14921,29.14921,0,0,1,32.26092,158.798q0-14.67876,9.94979-23.07744,9.9482-8.39868,27.50377-8.39867a64.948,64.948,0,0,1,16.45686,2.04292,113.16356,113.16356,0,0,1,16.3812,5.75044l-7.56637,18.235a110.7038,110.7038,0,0,0-14.64094-5.06947,47.1259,47.1259,0,0,0-11.38739-1.43761q-6.65841,0-10.21461,3.10221a10.22971,10.22971,0,0,0-3.55619,8.096,10.01953,10.01953,0,0,0,1.43761,5.41,15.79331,15.79331,0,0,0,4.57766,4.46416q3.13847,2.15642,14.86792,7.75554,15.50949,7.415,21.26151,14.86792Q103.08061,197.99184,103.08219,208.81174Z"/><path class="cls-1" d="M182.81285,239.53122H119.104V128.91083h63.70887v19.21859H142.55974v24.28807H180.0133v19.21859H142.55974v28.52523h40.25311Z"/><path class="cls-1" d="M233.77449,239.53122H210.31873V148.43208H180.28022V128.91083H263.813v19.52125h-30.0385Z"/><path class="cls-2" d="M384.63971,91.58216V182.8665q0,15.63221-5.91038,27.4046a41.567,41.567,0,0,1-17.079,18.04458q-11.17029,6.27218-26.4133,6.27218-22.98936,0-35.70688-13.94354t-12.71751-38.1638V122.45419h25.19046v55.49106q0,16.30767,5.54353,23.93078t18.34258,7.62311q12.39143,0,17.97572-7.67136,5.58259-7.67136,5.58429-24.07552V91.58216Z"/><path class="cls-2" d="M491.58369,135.58391q0,22.77285-13.324,34.83473-13.32591,12.06187-37.89445,12.06188H428.351V232.658H400.348V91.58216h42.18523q24.02843,0,36.53946,11.04869T491.58369,135.58391ZM428.351,157.97077h9.21391q12.91753,0,19.33114-5.452t6.4136-15.87344q0-10.518-5.37478-15.53571t-16.847-5.01774H428.351Z"/><path class="cls-2" d="M66.67006,123.63329H53.99218l7.4823-34.45853q1.455-6.31793,3.159-11.92965-.37359.33419-2.55681,1.95254Q59.895,80.82128,51.1653,86.26591l-5.52766-8.93673L69.16381,62.86269H79.514Z"/><path class="cls-2" d="M75.84219,106.00994l2.20265-10.39325H99.82549l-2.20265,10.39325Z"/><path class="cls-2" d="M148.22507,72.63172a15.79837,15.79837,0,0,0-9.872,3.367,23.07721,23.07721,0,0,0-7.04514,9.91195,37.0209,37.0209,0,0,0-2.66084,14.07135q0,6.94215,2.8479,10.30919,2.84685,3.367,9.08175,3.367a38.548,38.548,0,0,0,14.04929-3.201v10.8073A45.77187,45.77187,0,0,1,138,124.46559q-10.55825,0-16.419-6.21494-5.86079-6.21388-5.86079-17.60443a46.40562,46.40562,0,0,1,4.32334-20.05509A32.97342,32.97342,0,0,1,131.599,66.6669a29.54978,29.54978,0,0,1,16.62606-4.76051,41.1285,41.1285,0,0,1,9.22782.93529,35.10725,35.10725,0,0,1,8.64563,3.43008L161.194,76.66292a35.07786,35.07786,0,0,0-7.27423-3.243A21.41366,21.41366,0,0,0,148.22507,72.63172Z"/><path class="cls-2" d="M174.52662,123.63329H162.01478L175.732,58.9555h12.51184Z"/><path class="cls-2" d="M197.58515,123.63329H185.07331L194.92536,77.161h12.51079Zm-.66521-57.36153a7.13545,7.13545,0,0,1,1.97461-5.4667,7.87329,7.87329,0,0,1,5.59071-1.84956,7.16522,7.16522,0,0,1,4.61444,1.28839,4.50489,4.50489,0,0,1,1.57948,3.69911,7.798,7.798,0,0,1-1.82959,5.38264q-1.82854,2.05867-5.65271,2.05763Q196.91994,71.38327,196.91994,66.27176Z"/><path class="cls-2" d="M227.62786,124.46559q-8.35453,0-12.82291-4.46837-4.46887-4.47047-4.46836-12.61692a40.20268,40.20268,0,0,1,3.097-16.0239A25.43616,25.43616,0,0,1,222.14119,80.217a21.77743,21.77743,0,0,1,12.80293-3.92821,30.41675,30.41675,0,0,1,13.63314,2.99292l-3.82418,9.51892q-2.24469-.95525-4.40531-1.6625a15.77008,15.77008,0,0,0-4.90553-.70619,9.12466,9.12466,0,0,0-6.37992,2.65874,17.62534,17.62534,0,0,0-4.44735,7.29524,30.28571,30.28571,0,0,0-1.6005,9.95609q0,3.99126,1.89054,6.00686a6.86308,6.86308,0,0,0,5.25863,2.0156,17.106,17.106,0,0,0,5.86079-.97732,49.52485,49.52485,0,0,0,5.56969-2.43175v10.22511A29.81411,29.81411,0,0,1,227.62786,124.46559Z"/><path class="cls-2" d="M283.73252,77.161h14.29835L277.33053,98.11149l11.84663,25.5218H275.21089l-7.6063-17.45731L262.616,109.1689l-3.07594,14.46439H247.02825L260.74546,58.9555H273.2573l-6.15189,28.8468q-.33259,1.70559-1.20536,4.8635l-1.16438,4.23927h.16709Z"/></svg>