<svg id="katman_1" data-name="katman 1" xmlns="http://www.w3.org/2000/svg" viewBox="0 0 500 300"><defs><style type="text/css">.cls-1{fill:aqua;}.cls-10,.cls-100,.cls-101,.cls-102,.cls-103,.cls-104,.cls-105,.cls-106,.cls-107,.cls-108,.cls-109,.cls-11,.cls-110,.cls-111,.cls-112,.cls-113,.cls-114,.cls-115,.cls-116,.cls-117,.cls-118,.cls-119,.cls-12,.cls-120,.cls-121,.cls-122,.cls-123,.cls-124,.cls-125,.cls-126,.cls-127,.cls-128,.cls-129,.cls-13,.cls-130,.cls-131,.cls-132,.cls-133,.cls-134,.cls-135,.cls-136,.cls-137,.cls-138,.cls-139,.cls-14,.cls-140,.cls-141,.cls-142,.cls-143,.cls-144,.cls-145,.cls-146,.cls-147,.cls-148,.cls-149,.cls-15,.cls-150,.cls-151,.cls-152,.cls-153,.cls-154,.cls-16,.cls-17,.cls-18,.cls-19,.cls-2,.cls-20,.cls-21,.cls-22,.cls-23,.cls-24,.cls-25,.cls-26,.cls-27,.cls-28,.cls-29,.cls-30,.cls-31,.cls-32,.cls-33,.cls-34,.cls-35,.cls-36,.cls-37,.cls-38,.cls-39,.cls-4,.cls-40,.cls-41,.cls-42,.cls-43,.cls-44,.cls-45,.cls-46,.cls-47,.cls-48,.cls-49,.cls-5,.cls-50,.cls-51,.cls-52,.cls-53,.cls-54,.cls-55,.cls-56,.cls-57,.cls-58,.cls-59,.cls-6,.cls-60,.cls-61,.cls-62,.cls-63,.cls-64,.cls-65,.cls-66,.cls-67,.cls-68,.cls-69,.cls-7,.cls-70,.cls-71,.cls-72,.cls-73,.cls-74,.cls-75,.cls-76,.cls-77,.cls-78,.cls-79,.cls-8,.cls-80,.cls-81,.cls-82,.cls-83,.cls-84,.cls-85,.cls-86,.cls-87,.cls-88,.cls-89,.cls-9,.cls-90,.cls-91,.cls-92,.cls-93,.cls-94,.cls-95,.cls-96,.cls-97,.cls-98,.cls-99{fill:#fff;}.cls-3{opacity:0.43;}.cls-4{opacity:0;}.cls-5{opacity:0.00662;}.cls-6{opacity:0.01325;}.cls-7{opacity:0.01987;}.cls-8{opacity:0.02649;}.cls-9{opacity:0.03311;}.cls-10{opacity:0.03974;}.cls-11{opacity:0.04636;}.cls-12{opacity:0.05298;}.cls-13{opacity:0.0596;}.cls-14{opacity:0.06623;}.cls-15{opacity:0.07285;}.cls-16{opacity:0.07947;}.cls-17{opacity:0.08609;}.cls-18{opacity:0.09272;}.cls-19{opacity:0.09934;}.cls-20{opacity:0.10596;}.cls-21{opacity:0.11258;}.cls-22{opacity:0.11921;}.cls-23{opacity:0.12583;}.cls-24{opacity:0.13245;}.cls-25{opacity:0.13907;}.cls-26{opacity:0.1457;}.cls-27{opacity:0.15232;}.cls-28{opacity:0.15894;}.cls-29{opacity:0.16556;}.cls-30{opacity:0.17219;}.cls-31{opacity:0.17881;}.cls-32{opacity:0.18543;}.cls-33{opacity:0.19205;}.cls-34{opacity:0.19868;}.cls-35{opacity:0.2053;}.cls-36{opacity:0.21192;}.cls-37{opacity:0.21854;}.cls-38{opacity:0.22517;}.cls-39{opacity:0.23179;}.cls-40{opacity:0.23841;}.cls-41{opacity:0.24503;}.cls-42{opacity:0.25166;}.cls-43{opacity:0.25828;}.cls-44{opacity:0.2649;}.cls-45{opacity:0.27152;}.cls-46{opacity:0.27815;}.cls-47{opacity:0.28477;}.cls-48{opacity:0.29139;}.cls-49{opacity:0.29801;}.cls-50{opacity:0.30464;}.cls-51{opacity:0.31126;}.cls-52{opacity:0.31788;}.cls-53{opacity:0.3245;}.cls-54{opacity:0.33113;}.cls-55{opacity:0.33775;}.cls-56{opacity:0.34437;}.cls-57{opacity:0.35099;}.cls-58{opacity:0.35762;}.cls-59{opacity:0.36424;}.cls-60{opacity:0.37086;}.cls-61{opacity:0.37748;}.cls-62{opacity:0.38411;}.cls-63{opacity:0.39073;}.cls-64{opacity:0.39735;}.cls-65{opacity:0.40397;}.cls-66{opacity:0.4106;}.cls-67{opacity:0.41722;}.cls-68{opacity:0.42384;}.cls-69{opacity:0.43046;}.cls-70{opacity:0.43709;}.cls-71{opacity:0.44371;}.cls-72{opacity:0.45033;}.cls-73{opacity:0.45695;}.cls-74{opacity:0.46358;}.cls-75{opacity:0.4702;}.cls-76{opacity:0.47682;}.cls-77{opacity:0.48344;}.cls-78{opacity:0.49007;}.cls-79{opacity:0.49669;}.cls-80{opacity:0.50331;}.cls-81{opacity:0.50993;}.cls-82{opacity:0.51656;}.cls-83{opacity:0.52318;}.cls-84{opacity:0.5298;}.cls-85{opacity:0.53642;}.cls-86{opacity:0.54305;}.cls-87{opacity:0.54967;}.cls-88{opacity:0.55629;}.cls-89{opacity:0.56291;}.cls-90{opacity:0.56954;}.cls-91{opacity:0.57616;}.cls-92{opacity:0.58278;}.cls-93{opacity:0.5894;}.cls-94{opacity:0.59603;}.cls-95{opacity:0.60265;}.cls-96{opacity:0.60927;}.cls-97{opacity:0.61589;}.cls-98{opacity:0.62252;}.cls-99{opacity:0.62914;}.cls-100{opacity:0.63576;}.cls-101{opacity:0.64238;}.cls-102{opacity:0.64901;}.cls-103{opacity:0.65563;}.cls-104{opacity:0.66225;}.cls-105{opacity:0.66887;}.cls-106{opacity:0.6755;}.cls-107{opacity:0.68212;}.cls-108{opacity:0.68874;}.cls-109{opacity:0.69536;}.cls-110{opacity:0.70199;}.cls-111{opacity:0.70861;}.cls-112{opacity:0.71523;}.cls-113{opacity:0.72185;}.cls-114{opacity:0.72848;}.cls-115{opacity:0.7351;}.cls-116{opacity:0.74172;}.cls-117{opacity:0.74834;}.cls-118{opacity:0.75497;}.cls-119{opacity:0.76159;}.cls-120{opacity:0.76821;}.cls-121{opacity:0.77483;}.cls-122{opacity:0.78146;}.cls-123{opacity:0.78808;}.cls-124{opacity:0.7947;}.cls-125{opacity:0.80132;}.cls-126{opacity:0.80795;}.cls-127{opacity:0.81457;}.cls-128{opacity:0.82119;}.cls-129{opacity:0.82781;}.cls-130{opacity:0.83444;}.cls-131{opacity:0.84106;}.cls-132{opacity:0.84768;}.cls-133{opacity:0.8543;}.cls-134{opacity:0.86093;}.cls-135{opacity:0.86755;}.cls-136{opacity:0.87417;}.cls-137{opacity:0.88079;}.cls-138{opacity:0.88742;}.cls-139{opacity:0.89404;}.cls-140{opacity:0.90066;}.cls-141{opacity:0.90728;}.cls-142{opacity:0.91391;}.cls-143{opacity:0.92053;}.cls-144{opacity:0.92715;}.cls-145{opacity:0.93377;}.cls-146{opacity:0.9404;}.cls-147{opacity:0.94702;}.cls-148{opacity:0.95364;}.cls-149{opacity:0.96026;}.cls-150{opacity:0.96689;}.cls-151{opacity:0.97351;}.cls-152{opacity:0.98013;}.cls-153{opacity:0.98675;}.cls-154{opacity:0.99338;}</style></defs><title>1-clicknode</title><path class="cls-1" d="M34.24706,237.872,33.90144,92.813H7.03548V66.64035H60.76741L61.28583,237.872Z"/><path class="cls-2" d="M70.25265,238.21084V139.70928H81.1975v10.94415H92.14235v21.8897H81.1975v65.66771Zm21.8897-54.72356V172.54313H103.0872v10.94415Zm10.94485,10.94485V183.48728h10.94345v10.94485Zm10.94345,21.88971V194.43213h10.94486v21.88971Zm21.88971,21.889V227.266H124.97551V216.32184h10.94485V139.70928h10.94485v98.50156Z"/><path class="cls-2" d="M157.81006,216.32184V183.48728h10.94485v32.83456Zm10.94485-32.83456V172.54313h10.94485v10.94415Zm0,43.77871V216.32184h10.94485V227.266Zm10.94485-54.72286V161.59828h32.83316v10.94485Zm0,65.66771V227.266h32.83316v10.94485Zm32.83316-54.72356V172.54313h10.94485v10.94415Zm0,43.77871V216.32184h10.94485V227.266Zm10.94485-10.94415V183.48728h10.94485v32.83456Z"/><path class="cls-2" d="M245.36747,216.32184V183.48728h10.94485v32.83456Zm10.94485-32.83456V172.54313h10.94485v10.94415Zm0,43.77871V216.32184h10.94485V227.266Zm10.94485-54.72286V161.59828h32.83316v10.94485Zm0,65.66771V227.266h32.83316v10.94485Zm43.778,0V227.266H300.09033V216.32184h10.94485V183.48728H300.09033V172.54313h10.94485V139.70928H321.98v98.50156Z"/><path class="cls-2" d="M332.92488,216.32184V183.48728h10.94485v10.94485h54.72286V183.48728h10.94485V205.377H343.86973v10.94485Zm10.94485-32.83456V172.54313h10.94485v10.94415Zm0,43.77871V216.32184h10.94485V227.266Zm10.94485-54.72286V161.59828h32.83316v10.94485Zm0,65.66771V227.266h32.83316v10.94485Zm32.83316-54.72356V172.54313h10.94485v10.94415Zm0,43.77871V216.32184h10.94485V227.266Z"/><path class="cls-1" d="M129.29017,115.85614a1.65734,1.65734,0,0,1,1.68974,0l9.6541,8.34163a.70843.70843,0,0,1,0,1.23616c-7.48276,6.4874-18.10283,10.50387-29.92965,10.50387-23.41145,0-42.59924-14.41744-42.59924-37.07432,0-21.72941,17.74023-37.07432,42.59924-37.07432,11.82682,0,22.44689,4.01647,29.92965,10.60746a.70843.70843,0,0,1,0,1.23616l-9.6541,8.23874a1.65734,1.65734,0,0,1-1.68974,0,28.564,28.564,0,0,0-18.58581-6.69459c-16.29128,0-26.18757,9.99009-26.18757,23.68655,0,14.62393,11.70643,23.68654,26.18757,23.68654A28.56353,28.56353,0,0,0,129.29017,115.85614Z"/><path class="cls-1" d="M200.12791,121.52036c.72378,0,1.20676.41158,1.20676.82387v11.74c0,.41158-.483.82387-1.20676.82387H155.71713c-.72378,0-1.20677-.41229-1.20677-.82387V63.6427c0-.41159.483-.82317,1.20677-.82317h13.87915a1.01171,1.01171,0,0,1,1.085.82317v57.87766Z"/><path class="cls-1" d="M235.36759,75.17693V122.55h8.44733c.72378,0,1.20676.41159,1.20676.82388v10.71036c0,.41158-.483.82387-1.20676.82387H210.62758c-.72378,0-1.20677-.41229-1.20677-.82387V123.3739c0-.41229.483-.82388,1.20677-.82388h8.56772V75.17693h-8.08474c-.72518,0-1.20676-.41158-1.20676-.82317V63.6427c0-.41159.48158-.82317,1.20676-.82317h32.22137c.72378,0,1.20677.41158,1.20677.82317V74.35376c0,.41159-.483.82317-1.20677.82317Z"/><path class="cls-1" d="M315.739,115.85614a1.65734,1.65734,0,0,1,1.68974,0l9.6541,8.34163a.70843.70843,0,0,1,0,1.23616c-7.48277,6.4874-18.10283,10.50387-29.92965,10.50387-23.41145,0-42.59924-14.41744-42.59924-37.07432,0-21.72941,17.74023-37.07432,42.59924-37.07432,11.82682,0,22.44688,4.01647,29.92965,10.60746a.70843.70843,0,0,1,0,1.23616l-9.6541,8.23874a1.65734,1.65734,0,0,1-1.68974,0,28.564,28.564,0,0,0-18.58581-6.69459c-16.29128,0-26.18757,9.99009-26.18757,23.68655,0,14.62393,11.70643,23.68654,26.18757,23.68654A28.56353,28.56353,0,0,0,315.739,115.85614Z"/><path class="cls-1" d="M374.50915,99.48156l33.91112,34.08751c.72378.61808.1204,1.33906-.966,1.33906H389.35288a2.55312,2.55312,0,0,1-.966-.30869L363.7687,108.64707c-2.05234,1.95714-4.22367,4.32516-6.5168,6.2823v19.15489a1.01376,1.01376,0,0,1-1.08636.82387H342.28638c-.72378,0-1.20676-.41229-1.20676-.82387V63.6427c0-.41159.483-.82317,1.20676-.82317h13.87916a1.01327,1.01327,0,0,1,1.08636.82317V96.39186l31.73839-33.26364a2.55312,2.55312,0,0,1,.966-.30869h17.25725c1.08637,0,1.68975.72027.96457,1.33836Z"/><g class="cls-3"><polygon class="cls-4" points="467.913 186.073 405.422 114.218 405.238 209.526 426.186 188.731 439.755 222.896 451.421 217.86 438.288 184.791 467.913 186.073"/><polygon class="cls-5" points="468.076 185.981 405.585 114.126 405.4 209.434 426.349 188.638 439.918 222.803 451.584 217.768 438.45 184.699 468.076 185.981"/><polygon class="cls-6" points="468.238 185.889 405.747 114.034 405.563 209.342 426.511 188.546 440.08 222.711 451.746 217.676 438.613 184.607 468.238 185.889"/><polygon class="cls-7" points="468.401 185.797 405.91 113.942 405.725 209.249 426.674 188.454 440.243 222.619 451.909 217.583 438.775 184.515 468.401 185.797"/><polygon class="cls-8" points="468.563 185.705 406.072 113.85 405.888 209.157 426.836 188.362 440.405 222.527 452.071 217.491 438.938 184.423 468.563 185.705"/><polygon class="cls-9" points="468.726 185.613 406.235 113.757 406.05 209.065 426.999 188.27 440.568 222.435 452.234 217.399 439.1 184.331 468.726 185.613"/><polygon class="cls-10" points="468.889 185.52 406.398 113.665 406.213 208.973 427.161 188.178 440.73 222.343 452.396 217.307 439.263 184.238 468.889 185.52"/><polygon class="cls-11" points="469.051 185.428 406.56 113.573 406.376 208.881 427.324 188.085 440.893 222.25 452.559 217.215 439.425 184.146 469.051 185.428"/><polygon class="cls-12" points="469.214 185.336 406.723 113.481 406.538 208.789 427.486 187.993 441.055 222.158 452.721 217.123 439.588 184.054 469.214 185.336"/><polygon class="cls-13" points="469.376 185.244 406.885 113.389 406.701 208.696 427.649 187.901 441.218 222.066 452.884 217.03 439.751 183.962 469.376 185.244"/><polygon class="cls-14" points="469.539 185.152 407.048 113.297 406.863 208.604 427.811 187.809 441.38 221.974 453.047 216.938 439.913 183.87 469.539 185.152"/><polygon class="cls-15" points="469.701 185.06 407.21 113.204 407.026 208.512 427.974 187.717 441.543 221.882 453.209 216.846 440.076 183.778 469.701 185.06"/><polygon class="cls-16" points="469.864 184.967 407.373 113.112 407.188 208.42 428.137 187.625 441.705 221.79 453.372 216.754 440.238 183.685 469.864 184.967"/><polygon class="cls-17" points="470.026 184.875 407.535 113.02 407.351 208.328 428.299 187.532 441.868 221.697 453.534 216.662 440.401 183.593 470.026 184.875"/><polygon class="cls-18" points="470.189 184.783 407.698 112.928 407.513 208.236 428.462 187.44 442.031 221.605 453.697 216.57 440.563 183.501 470.189 184.783"/><polygon class="cls-19" points="470.351 184.691 407.86 112.836 407.676 208.143 428.624 187.348 442.193 221.513 453.859 216.477 440.726 183.409 470.351 184.691"/><polygon class="cls-20" points="470.514 184.599 408.023 112.744 407.838 208.051 428.787 187.256 442.356 221.421 454.022 216.385 440.888 183.317 470.514 184.599"/><polygon class="cls-21" points="470.676 184.507 408.186 112.651 408.001 207.959 428.949 187.164 442.518 221.329 454.184 216.293 441.051 183.225 470.676 184.507"/><polygon class="cls-22" points="470.839 184.414 408.348 112.559 408.164 207.867 429.112 187.072 442.681 221.237 454.347 216.201 441.213 183.132 470.839 184.414"/><polygon class="cls-23" points="471.002 184.322 408.511 112.467 408.326 207.775 429.274 186.979 442.843 221.144 454.509 216.109 441.376 183.04 471.002 184.322"/><polygon class="cls-24" points="471.164 184.23 408.673 112.375 408.489 207.683 429.437 186.887 443.006 221.052 454.672 216.017 441.539 182.948 471.164 184.23"/><polygon class="cls-25" points="471.327 184.138 408.836 112.283 408.651 207.59 429.599 186.795 443.168 220.96 454.835 215.924 441.701 182.856 471.327 184.138"/><polygon class="cls-26" points="471.489 184.046 408.998 112.191 408.814 207.498 429.762 186.703 443.331 220.868 454.997 215.832 441.864 182.764 471.489 184.046"/><polygon class="cls-27" points="471.652 183.954 409.161 112.098 408.976 207.406 429.925 186.611 443.493 220.776 455.16 215.74 442.026 182.672 471.652 183.954"/><polygon class="cls-28" points="471.814 183.861 409.323 112.006 409.139 207.314 430.087 186.519 443.656 220.684 455.322 215.648 442.189 182.579 471.814 183.861"/><polygon class="cls-29" points="471.977 183.769 409.486 111.914 409.301 207.222 430.25 186.426 443.819 220.591 455.485 215.556 442.351 182.487 471.977 183.769"/><polygon class="cls-30" points="472.139 183.677 409.648 111.822 409.464 207.13 430.412 186.334 443.981 220.499 455.647 215.464 442.514 182.395 472.139 183.677"/><polygon class="cls-31" points="472.302 183.585 409.811 111.73 409.626 207.037 430.575 186.242 444.144 220.407 455.81 215.371 442.676 182.303 472.302 183.585"/><polygon class="cls-32" points="472.464 183.493 409.974 111.638 409.789 206.945 430.737 186.15 444.306 220.315 455.972 215.279 442.839 182.211 472.464 183.493"/><polygon class="cls-33" points="472.627 183.401 410.136 111.545 409.952 206.853 430.9 186.058 444.469 220.223 456.135 215.187 443.001 182.119 472.627 183.401"/><polygon class="cls-34" points="472.79 183.308 410.299 111.453 410.114 206.761 431.062 185.966 444.631 220.131 456.297 215.095 443.164 182.026 472.79 183.308"/><polygon class="cls-35" points="472.952 183.216 410.461 111.361 410.277 206.669 431.225 185.873 444.794 220.038 456.46 215.003 443.326 181.934 472.952 183.216"/><polygon class="cls-36" points="473.115 183.124 410.624 111.269 410.439 206.576 431.387 185.781 444.956 219.946 456.622 214.911 443.489 181.842 473.115 183.124"/><polygon class="cls-37" points="473.277 183.032 410.786 111.177 410.602 206.484 431.55 185.689 445.119 219.854 456.785 214.818 443.652 181.75 473.277 183.032"/><polygon class="cls-38" points="473.44 182.94 410.949 111.085 410.764 206.392 431.712 185.597 445.281 219.762 456.948 214.726 443.814 181.658 473.44 182.94"/><polygon class="cls-39" points="473.602 182.848 411.111 110.992 410.927 206.3 431.875 185.505 445.444 219.67 457.11 214.634 443.977 181.566 473.602 182.848"/><polygon class="cls-40" points="473.765 182.755 411.274 110.9 411.089 206.208 432.038 185.412 445.607 219.578 457.273 214.542 444.139 181.473 473.765 182.755"/><polygon class="cls-41" points="473.927 182.663 411.436 110.808 411.252 206.116 432.2 185.32 445.769 219.485 457.435 214.45 444.302 181.381 473.927 182.663"/><polygon class="cls-42" points="474.09 182.571 411.599 110.716 411.414 206.023 432.363 185.228 445.932 219.393 457.598 214.358 444.464 181.289 474.09 182.571"/><polygon class="cls-43" points="474.252 182.479 411.761 110.624 411.577 205.931 432.525 185.136 446.094 219.301 457.76 214.265 444.627 181.197 474.252 182.479"/><polygon class="cls-44" points="474.415 182.387 411.924 110.532 411.739 205.839 432.688 185.044 446.257 219.209 457.923 214.173 444.789 181.105 474.415 182.387"/><polygon class="cls-45" points="474.578 182.295 412.087 110.439 411.902 205.747 432.85 184.952 446.419 219.117 458.085 214.081 444.952 181.013 474.578 182.295"/><polygon class="cls-46" points="474.74 182.202 412.249 110.347 412.065 205.655 433.013 184.859 446.582 219.025 458.248 213.989 445.114 180.92 474.74 182.202"/><polygon class="cls-47" points="474.903 182.11 412.412 110.255 412.227 205.563 433.175 184.767 446.744 218.932 458.41 213.897 445.277 180.828 474.903 182.11"/><polygon class="cls-48" points="475.065 182.018 412.574 110.163 412.39 205.47 433.338 184.675 446.907 218.84 458.573 213.805 445.44 180.736 475.065 182.018"/><polygon class="cls-49" points="475.228 181.926 412.737 110.071 412.552 205.378 433.5 184.583 447.069 218.748 458.736 213.712 445.602 180.644 475.228 181.926"/><polygon class="cls-50" points="475.39 181.834 412.899 109.979 412.715 205.286 433.663 184.491 447.232 218.656 458.898 213.62 445.765 180.552 475.39 181.834"/><polygon class="cls-51" points="475.553 181.742 413.062 109.886 412.877 205.194 433.826 184.399 447.394 218.564 459.061 213.528 445.927 180.46 475.553 181.742"/><polygon class="cls-52" points="475.715 181.649 413.224 109.794 413.04 205.102 433.988 184.306 447.557 218.472 459.223 213.436 446.09 180.367 475.715 181.649"/><polygon class="cls-53" points="475.878 181.557 413.387 109.702 413.202 205.01 434.151 184.214 447.72 218.379 459.386 213.344 446.252 180.275 475.878 181.557"/><polygon class="cls-54" points="476.04 181.465 413.549 109.61 413.365 204.917 434.313 184.122 447.882 218.287 459.548 213.252 446.415 180.183 476.04 181.465"/><polygon class="cls-55" points="476.203 181.373 413.712 109.518 413.527 204.825 434.476 184.03 448.045 218.195 459.711 213.159 446.577 180.091 476.203 181.373"/><polygon class="cls-56" points="476.365 181.281 413.875 109.426 413.69 204.733 434.638 183.938 448.207 218.103 459.873 213.067 446.74 179.999 476.365 181.281"/><polygon class="cls-57" points="476.528 181.189 414.037 109.333 413.853 204.641 434.801 183.846 448.37 218.011 460.036 212.975 446.902 179.907 476.528 181.189"/><polygon class="cls-58" points="476.691 181.096 414.2 109.241 414.015 204.549 434.963 183.753 448.532 217.919 460.198 212.883 447.065 179.814 476.691 181.096"/><polygon class="cls-59" points="476.853 181.004 414.362 109.149 414.178 204.457 435.126 183.661 448.695 217.826 460.361 212.791 447.228 179.722 476.853 181.004"/><polygon class="cls-60" points="477.016 180.912 414.525 109.057 414.34 204.364 435.288 183.569 448.857 217.734 460.524 212.699 447.39 179.63 477.016 180.912"/><polygon class="cls-61" points="477.178 180.82 414.687 108.965 414.503 204.272 435.451 183.477 449.02 217.642 460.686 212.606 447.553 179.538 477.178 180.82"/><polygon class="cls-62" points="477.341 180.728 414.85 108.873 414.665 204.18 435.614 183.385 449.182 217.55 460.849 212.514 447.715 179.446 477.341 180.728"/><polygon class="cls-63" points="477.503 180.636 415.012 108.78 414.828 204.088 435.776 183.293 449.345 217.458 461.011 212.422 447.878 179.354 477.503 180.636"/><polygon class="cls-64" points="477.666 180.543 415.175 108.688 414.99 203.996 435.939 183.2 449.508 217.366 461.174 212.33 448.04 179.261 477.666 180.543"/><polygon class="cls-65" points="477.828 180.451 415.337 108.596 415.153 203.904 436.101 183.108 449.67 217.273 461.336 212.238 448.203 179.169 477.828 180.451"/><polygon class="cls-66" points="477.991 180.359 415.5 108.504 415.315 203.811 436.264 183.016 449.833 217.181 461.499 212.146 448.365 179.077 477.991 180.359"/><polygon class="cls-67" points="478.153 180.267 415.663 108.412 415.478 203.719 436.426 182.924 449.995 217.089 461.661 212.053 448.528 178.985 478.153 180.267"/><polygon class="cls-68" points="478.316 180.175 415.825 108.319 415.641 203.627 436.589 182.832 450.158 216.997 461.824 211.961 448.69 178.893 478.316 180.175"/><polygon class="cls-69" points="478.479 180.083 415.988 108.227 415.803 203.535 436.751 182.74 450.32 216.905 461.986 211.869 448.853 178.801 478.479 180.083"/><polygon class="cls-70" points="478.641 179.99 416.15 108.135 415.966 203.443 436.914 182.647 450.483 216.813 462.149 211.777 449.015 178.708 478.641 179.99"/><polygon class="cls-71" points="478.804 179.898 416.313 108.043 416.128 203.351 437.076 182.555 450.645 216.72 462.311 211.685 449.178 178.616 478.804 179.898"/><polygon class="cls-72" points="478.966 179.806 416.475 107.951 416.291 203.258 437.239 182.463 450.808 216.628 462.474 211.593 449.341 178.524 478.966 179.806"/><polygon class="cls-73" points="479.129 179.714 416.638 107.859 416.453 203.166 437.401 182.371 450.97 216.536 462.637 211.5 449.503 178.432 479.129 179.714"/><polygon class="cls-74" points="479.291 179.622 416.8 107.766 416.616 203.074 437.564 182.279 451.133 216.444 462.799 211.408 449.666 178.34 479.291 179.622"/><polygon class="cls-75" points="479.454 179.53 416.963 107.674 416.778 202.982 437.727 182.187 451.296 216.352 462.962 211.316 449.828 178.248 479.454 179.53"/><polygon class="cls-76" points="479.616 179.437 417.125 107.582 416.941 202.89 437.889 182.094 451.458 216.26 463.124 211.224 449.991 178.155 479.616 179.437"/><polygon class="cls-77" points="479.779 179.345 417.288 107.49 417.103 202.798 438.052 182.002 451.621 216.167 463.287 211.132 450.153 178.063 479.779 179.345"/><polygon class="cls-78" points="479.941 179.253 417.45 107.398 417.266 202.705 438.214 181.91 451.783 216.075 463.449 211.04 450.316 177.971 479.941 179.253"/><polygon class="cls-79" points="480.104 179.161 417.613 107.306 417.428 202.613 438.377 181.818 451.946 215.983 463.612 210.947 450.478 177.879 480.104 179.161"/><polygon class="cls-80" points="480.267 179.069 417.776 107.213 417.591 202.521 438.539 181.726 452.108 215.891 463.774 210.855 450.641 177.787 480.267 179.069"/><polygon class="cls-81" points="480.429 178.977 417.938 107.121 417.754 202.429 438.702 181.634 452.271 215.799 463.937 210.763 450.803 177.695 480.429 178.977"/><polygon class="cls-82" points="480.592 178.884 418.101 107.029 417.916 202.337 438.864 181.541 452.433 215.707 464.099 210.671 450.966 177.602 480.592 178.884"/><polygon class="cls-83" points="480.754 178.792 418.263 106.937 418.079 202.245 439.027 181.449 452.596 215.614 464.262 210.579 451.129 177.51 480.754 178.792"/><polygon class="cls-84" points="480.917 178.7 418.426 106.845 418.241 202.152 439.189 181.357 452.758 215.522 464.425 210.487 451.291 177.418 480.917 178.7"/><polygon class="cls-85" points="481.079 178.608 418.588 106.753 418.404 202.06 439.352 181.265 452.921 215.43 464.587 210.394 451.454 177.326 481.079 178.608"/><polygon class="cls-86" points="481.242 178.516 418.751 106.66 418.566 201.968 439.515 181.173 453.083 215.338 464.75 210.302 451.616 177.234 481.242 178.516"/><polygon class="cls-87" points="481.404 178.424 418.913 106.568 418.729 201.876 439.677 181.081 453.246 215.246 464.912 210.21 451.779 177.142 481.404 178.424"/><polygon class="cls-88" points="481.567 178.331 419.076 106.476 418.891 201.784 439.84 180.988 453.409 215.154 465.075 210.118 451.941 177.049 481.567 178.331"/><polygon class="cls-89" points="481.729 178.239 419.238 106.384 419.054 201.692 440.002 180.896 453.571 215.061 465.237 210.026 452.104 176.957 481.729 178.239"/><polygon class="cls-90" points="481.892 178.147 419.401 106.292 419.216 201.599 440.165 180.804 453.734 214.969 465.4 209.934 452.266 176.865 481.892 178.147"/><polygon class="cls-91" points="482.054 178.055 419.564 106.2 419.379 201.507 440.327 180.712 453.896 214.877 465.562 209.841 452.429 176.773 482.054 178.055"/><polygon class="cls-92" points="482.217 177.963 419.726 106.107 419.542 201.415 440.49 180.62 454.059 214.785 465.725 209.749 452.591 176.681 482.217 177.963"/><polygon class="cls-93" points="482.38 177.871 419.889 106.015 419.704 201.323 440.652 180.528 454.221 214.693 465.887 209.657 452.754 176.589 482.38 177.871"/><polygon class="cls-94" points="482.542 177.778 420.051 105.923 419.867 201.231 440.815 180.435 454.384 214.601 466.05 209.565 452.917 176.496 482.542 177.778"/><polygon class="cls-95" points="482.705 177.686 420.214 105.831 420.029 201.139 440.977 180.343 454.546 214.508 466.213 209.473 453.079 176.404 482.705 177.686"/><polygon class="cls-96" points="482.867 177.594 420.376 105.739 420.192 201.046 441.14 180.251 454.709 214.416 466.375 209.381 453.242 176.312 482.867 177.594"/><polygon class="cls-97" points="483.03 177.502 420.539 105.647 420.354 200.954 441.303 180.159 454.871 214.324 466.538 209.288 453.404 176.22 483.03 177.502"/><polygon class="cls-98" points="483.192 177.41 420.701 105.554 420.517 200.862 441.465 180.067 455.034 214.232 466.7 209.196 453.567 176.128 483.192 177.41"/><polygon class="cls-99" points="483.355 177.318 420.864 105.462 420.679 200.77 441.628 179.975 455.197 214.14 466.863 209.104 453.729 176.036 483.355 177.318"/><polygon class="cls-100" points="483.517 177.225 421.026 105.37 420.842 200.678 441.79 179.882 455.359 214.048 467.025 209.012 453.892 175.943 483.517 177.225"/><polygon class="cls-101" points="483.68 177.133 421.189 105.278 421.004 200.586 441.953 179.79 455.522 213.955 467.188 208.92 454.054 175.851 483.68 177.133"/><polygon class="cls-102" points="483.842 177.041 421.352 105.186 421.167 200.493 442.115 179.698 455.684 213.863 467.35 208.828 454.217 175.759 483.842 177.041"/><polygon class="cls-103" points="484.005 176.949 421.514 105.094 421.329 200.401 442.278 179.606 455.847 213.771 467.513 208.735 454.379 175.667 484.005 176.949"/><polygon class="cls-104" points="484.168 176.857 421.677 105.001 421.492 200.309 442.44 179.514 456.009 213.679 467.675 208.643 454.542 175.575 484.168 176.857"/><polygon class="cls-105" points="484.33 176.765 421.839 104.909 421.655 200.217 442.603 179.422 456.172 213.587 467.838 208.551 454.704 175.483 484.33 176.765"/><polygon class="cls-106" points="484.493 176.672 422.002 104.817 421.817 200.125 442.765 179.329 456.334 213.495 468 208.459 454.867 175.39 484.493 176.672"/><polygon class="cls-107" points="484.655 176.58 422.164 104.725 421.98 200.033 442.928 179.237 456.497 213.402 468.163 208.367 455.03 175.298 484.655 176.58"/><polygon class="cls-108" points="484.818 176.488 422.327 104.633 422.142 199.94 443.09 179.145 456.659 213.31 468.326 208.275 455.192 175.206 484.818 176.488"/><polygon class="cls-109" points="484.98 176.396 422.489 104.541 422.305 199.848 443.253 179.053 456.822 213.218 468.488 208.182 455.355 175.114 484.98 176.396"/><polygon class="cls-110" points="485.143 176.304 422.652 104.448 422.467 199.756 443.416 178.961 456.985 213.126 468.651 208.09 455.517 175.022 485.143 176.304"/><polygon class="cls-111" points="485.305 176.212 422.814 104.356 422.63 199.664 443.578 178.869 457.147 213.034 468.813 207.998 455.68 174.93 485.305 176.212"/><polygon class="cls-112" points="485.468 176.119 422.977 104.264 422.792 199.572 443.741 178.776 457.31 212.942 468.976 207.906 455.842 174.837 485.468 176.119"/><polygon class="cls-113" points="485.63 176.027 423.139 104.172 422.955 199.48 443.903 178.684 457.472 212.849 469.138 207.814 456.005 174.745 485.63 176.027"/><polygon class="cls-114" points="485.793 175.935 423.302 104.08 423.117 199.387 444.066 178.592 457.635 212.757 469.301 207.722 456.167 174.653 485.793 175.935"/><polygon class="cls-115" points="485.956 175.843 423.465 103.988 423.28 199.295 444.228 178.5 457.797 212.665 469.463 207.629 456.33 174.561 485.956 175.843"/><polygon class="cls-116" points="486.118 175.751 423.627 103.895 423.443 199.203 444.391 178.408 457.96 212.573 469.626 207.537 456.492 174.469 486.118 175.751"/><polygon class="cls-117" points="486.281 175.659 423.79 103.803 423.605 199.111 444.553 178.316 458.122 212.481 469.788 207.445 456.655 174.377 486.281 175.659"/><polygon class="cls-118" points="486.443 175.566 423.952 103.711 423.768 199.019 444.716 178.223 458.285 212.389 469.951 207.353 456.818 174.284 486.443 175.566"/><polygon class="cls-119" points="486.606 175.474 424.115 103.619 423.93 198.927 444.878 178.131 458.447 212.296 470.114 207.261 456.98 174.192 486.606 175.474"/><polygon class="cls-120" points="486.768 175.382 424.277 103.527 424.093 198.834 445.041 178.039 458.61 212.204 470.276 207.169 457.143 174.1 486.768 175.382"/><polygon class="cls-121" points="486.931 175.29 424.44 103.435 424.255 198.742 445.204 177.947 458.772 212.112 470.439 207.076 457.305 174.008 486.931 175.29"/><polygon class="cls-122" points="487.093 175.198 424.602 103.342 424.418 198.65 445.366 177.855 458.935 212.02 470.601 206.984 457.468 173.916 487.093 175.198"/><polygon class="cls-123" points="487.256 175.106 424.765 103.25 424.58 198.558 445.529 177.763 459.098 211.928 470.764 206.892 457.63 173.824 487.256 175.106"/><polygon class="cls-124" points="487.418 175.013 424.927 103.158 424.743 198.466 445.691 177.67 459.26 211.836 470.926 206.8 457.793 173.731 487.418 175.013"/><polygon class="cls-125" points="487.581 174.921 425.09 103.066 424.905 198.374 445.854 177.578 459.423 211.743 471.089 206.708 457.955 173.639 487.581 174.921"/><polygon class="cls-126" points="487.743 174.829 425.253 102.974 425.068 198.281 446.016 177.486 459.585 211.651 471.251 206.616 458.118 173.547 487.743 174.829"/><polygon class="cls-127" points="487.906 174.737 425.415 102.882 425.231 198.189 446.179 177.394 459.748 211.559 471.414 206.523 458.28 173.455 487.906 174.737"/><polygon class="cls-128" points="488.069 174.645 425.578 102.789 425.393 198.097 446.341 177.302 459.91 211.467 471.576 206.431 458.443 173.363 488.069 174.645"/><polygon class="cls-129" points="488.231 174.553 425.74 102.697 425.556 198.005 446.504 177.21 460.073 211.375 471.739 206.339 458.606 173.271 488.231 174.553"/><polygon class="cls-130" points="488.394 174.46 425.903 102.605 425.718 197.913 446.666 177.117 460.235 211.283 471.902 206.247 458.768 173.178 488.394 174.46"/><polygon class="cls-131" points="488.556 174.368 426.065 102.513 425.881 197.821 446.829 177.025 460.398 211.19 472.064 206.155 458.931 173.086 488.556 174.368"/><polygon class="cls-132" points="488.719 174.276 426.228 102.421 426.043 197.728 446.992 176.933 460.56 211.098 472.227 206.063 459.093 172.994 488.719 174.276"/><polygon class="cls-133" points="488.881 174.184 426.39 102.329 426.206 197.636 447.154 176.841 460.723 211.006 472.389 205.97 459.256 172.902 488.881 174.184"/><polygon class="cls-134" points="489.044 174.092 426.553 102.236 426.368 197.544 447.317 176.749 460.886 210.914 472.552 205.878 459.418 172.81 489.044 174.092"/><polygon class="cls-135" points="489.206 174 426.715 102.144 426.531 197.452 447.479 176.657 461.048 210.822 472.714 205.786 459.581 172.718 489.206 174"/><polygon class="cls-136" points="489.369 173.907 426.878 102.052 426.693 197.36 447.642 176.564 461.211 210.73 472.877 205.694 459.743 172.625 489.369 173.907"/><polygon class="cls-137" points="489.531 173.815 427.041 101.96 426.856 197.268 447.804 176.472 461.373 210.637 473.039 205.602 459.906 172.533 489.531 173.815"/><polygon class="cls-138" points="489.694 173.723 427.203 101.868 427.018 197.175 447.967 176.38 461.536 210.545 473.202 205.51 460.068 172.441 489.694 173.723"/><polygon class="cls-139" points="489.857 173.631 427.366 101.776 427.181 197.083 448.129 176.288 461.698 210.453 473.364 205.417 460.231 172.349 489.857 173.631"/><polygon class="cls-140" points="490.019 173.539 427.528 101.683 427.344 196.991 448.292 176.196 461.861 210.361 473.527 205.325 460.393 172.257 490.019 173.539"/><polygon class="cls-141" points="490.182 173.447 427.691 101.591 427.506 196.899 448.454 176.104 462.023 210.269 473.689 205.233 460.556 172.165 490.182 173.447"/><polygon class="cls-142" points="490.344 173.354 427.853 101.499 427.669 196.807 448.617 176.011 462.186 210.177 473.852 205.141 460.719 172.072 490.344 173.354"/><polygon class="cls-143" points="490.507 173.262 428.016 101.407 427.831 196.715 448.779 175.919 462.348 210.084 474.015 205.049 460.881 171.98 490.507 173.262"/><polygon class="cls-144" points="490.669 173.17 428.178 101.315 427.994 196.622 448.942 175.827 462.511 209.992 474.177 204.957 461.044 171.888 490.669 173.17"/><polygon class="cls-145" points="490.832 173.078 428.341 101.223 428.156 196.53 449.105 175.735 462.674 209.9 474.34 204.864 461.206 171.796 490.832 173.078"/><polygon class="cls-146" points="490.994 172.986 428.503 101.13 428.319 196.438 449.267 175.643 462.836 209.808 474.502 204.772 461.369 171.704 490.994 172.986"/><polygon class="cls-147" points="491.157 172.894 428.666 101.038 428.481 196.346 449.43 175.551 462.999 209.716 474.665 204.68 461.531 171.612 491.157 172.894"/><polygon class="cls-148" points="491.319 172.801 428.828 100.946 428.644 196.254 449.592 175.458 463.161 209.624 474.827 204.588 461.694 171.519 491.319 172.801"/><polygon class="cls-149" points="491.482 172.709 428.991 100.854 428.806 196.162 449.755 175.366 463.324 209.531 474.99 204.496 461.856 171.427 491.482 172.709"/><polygon class="cls-150" points="491.645 172.617 429.154 100.762 428.969 196.069 449.917 175.274 463.486 209.439 475.152 204.404 462.019 171.335 491.645 172.617"/><polygon class="cls-151" points="491.807 172.525 429.316 100.67 429.132 195.977 450.08 175.182 463.649 209.347 475.315 204.311 462.181 171.243 491.807 172.525"/><polygon class="cls-152" points="491.97 172.433 429.479 100.577 429.294 195.885 450.242 175.09 463.811 209.255 475.477 204.219 462.344 171.151 491.97 172.433"/><polygon class="cls-153" points="492.132 172.341 429.641 100.485 429.457 195.793 450.405 174.998 463.974 209.163 475.64 204.127 462.507 171.059 492.132 172.341"/><polygon class="cls-154" points="492.295 172.248 429.804 100.393 429.619 195.701 450.567 174.905 464.136 209.071 475.803 204.035 462.669 170.966 492.295 172.248"/><polygon class="cls-2" points="492.457 172.156 429.966 100.301 429.782 195.609 450.73 174.813 464.299 208.978 475.965 203.943 462.832 170.874 492.457 172.156"/></g><polygon class="cls-2" points="492.414 172.156 429.923 100.301 429.738 195.609 450.686 174.813 464.255 208.978 475.922 203.943 462.788 170.874 492.414 172.156"/></svg>